<svg width="464" height="340" viewBox="0 0 464 340" fill="none" xmlns="http://www.w3.org/2000/svg">
<path d="M201.062 72.777C185.435 16.088 115.014 -2.17401 74.656 40.193C74.076 40.801 73.498 41.42 72.919 42.049C15.06 104.944 42.393 259.936 163.143 299.22C283.893 338.504 409.489 266.768 416.545 202.641C423.601 138.514 367.893 118.364 281.44 136.296C232.596 146.426 210.79 108.067 201.062 72.777Z" fill="#BBE2F2"/>
<path d="M301.51 82.473C285.354 85.103 280.877 99.417 293.351 109.571C297.474 112.927 303.362 115.716 311.75 117.107C343.704 122.408 360.661 108.27 347.852 89.94C339.947 78.627 317.52 79.867 301.51 82.473Z" fill="#BBE2F2"/>
<path d="M43.91 197.017C33.866 184.092 19.156 187.014 16.213 202.827C15.24 208.054 15.611 214.558 18.405 222.589C29.049 253.181 49.579 261.3 59.54 241.279C65.689 228.922 53.864 209.825 43.91 197.017Z" fill="#BBE2F2"/>
<path d="M427.933 210.093C426.445 217.884 432.878 223.403 440.168 220.4C442.577 219.408 445.008 217.495 447.17 214.131C455.406 201.318 451.235 190.328 439.767 191.456C432.689 192.153 429.408 202.372 427.933 210.093Z" fill="#BBE2F2"/>
<path d="M387.09 127.876C394.855 129.497 400.482 123.158 397.604 115.819C396.653 113.393 394.781 110.93 391.456 108.711C378.786 100.258 367.725 104.241 368.658 115.727C369.234 122.815 379.395 126.27 387.09 127.876Z" fill="#BBE2F2"/>
<path d="M198.364 44.502C204.512 49.514 212.425 46.477 213.248 38.636C213.52 36.045 212.992 32.997 211.06 29.496C203.701 16.16 192.049 14.607 187.591 25.233C184.84 31.792 192.272 39.535 198.364 44.502Z" fill="#BBE2F2"/>
<path d="M447.184 249.068C459.513 236.674 468.902 222.667 459.562 220.484C450.213 218.298 434.512 242.707 431.776 264.924L429.038 272.259C431.315 256.103 425.779 236.423 417.673 235.612C409.619 234.806 414.494 247.571 420.891 258.488C425.76 266.798 427.044 273.354 427.364 276.742L414.432 311.385C417.964 285.79 409.194 254.737 396.369 253.454C383.59 252.176 391.325 272.43 401.474 289.752C409.144 302.842 411.209 313.195 411.736 318.605L409.158 325.513C410.286 326.148 411.417 326.776 412.552 327.397L427.937 286.181C430.905 283.965 435.412 281.287 441.829 279.116C453.815 275.061 465.862 268.613 459.25 263.944C453.512 259.892 440.022 267.691 430.73 278.698L436.051 264.444C438.45 260.318 441.863 254.417 447.184 249.068Z" fill="#1C31B5"/>
<path d="M58.547 87.371C60.146 72.402 58.901 57.934 51.451 61.502C43.994 65.074 46.608 89.93 56.746 106.325L58.861 112.727C51.681 100.65 37.355 90.418 31.475 94.242C25.632 98.042 35.787 103.987 45.967 107.87C53.717 110.826 58.112 114.537 60.154 116.64L70.144 146.877C58.719 127.784 36.09 111.658 26.786 117.709C17.515 123.739 33.627 133.172 49.781 139.334C61.988 143.99 68.956 149.83 72.226 153.179L74.218 159.208C75.318 159.027 76.416 158.839 77.513 158.644L65.628 122.671C66.427 119.583 68.01 115.355 71.149 110.438C77.013 101.254 81.627 90.43 74.67 90.858C68.632 91.23 63.777 103.74 63.47 116.14L59.36 103.7C58.746 99.634 57.857 93.832 58.547 87.371Z" fill="#1C31B5"/>
<path d="M363.959 290.241C364.116 291.089 364.297 292.015 364.509 292.999V293.001C366.729 303.323 372.179 320.219 384.442 323.542C384.442 323.542 377.767 288.738 401.557 279.673C425.347 270.608 422.716 261.977 421.356 246.614C419.996 231.251 414.739 228.322 431.246 213.931C447.753 199.54 444.596 178.105 444.596 178.105C444.596 178.105 428.974 202.579 412.289 203.147C395.604 203.715 392.681 217.959 393.393 228.552C394.104 239.144 379.934 240.342 372.266 246.486C364.598 252.63 363.154 284.894 363.154 284.894C363.154 284.894 363.366 287.004 363.959 290.241Z" fill="#009CF8"/>
<path d="M363.959 290.241C364.116 291.089 364.297 292.015 364.509 292.999C366.22 287.82 368.626 283.47 370.879 280.132C376.215 272.225 383.731 265.73 390.49 263.181C401.252 259.126 406.508 248.57 407.526 228.953C408.116 217.567 420.029 210.841 420.151 210.775C420.499 210.582 420.626 210.142 420.433 209.794C420.24 209.444 419.8 209.317 419.452 209.51C418.932 209.797 406.715 216.681 406.083 228.877C405.1 247.841 400.133 258.005 389.981 261.831C382.849 264.518 375.26 271.057 369.681 279.322C367.709 282.244 365.622 285.922 363.959 290.241Z" fill="#006BDE"/>
<path d="M100.633 323.353H117.35C108.317 321.86 85.922 312.246 83.925 292.967C81.396 268.548 72.7 268.853 58.049 266.3C43.397 263.746 39.361 267.916 30.058 248.958C20.755 230.001 0 227.611 0 227.611C0 227.611 18.917 248.252 15.297 263.938C11.677 279.625 24.221 285.889 34.267 287.861C44.313 289.832 41.905 303.332 45.722 312.004C47.464 315.961 54.595 320.063 61.833 323.353H100.633Z" fill="#006BDE"/>
<path d="M64.424 299.315C65.154 306.628 69.359 315.325 75.672 322.578C75.894 322.833 76.125 323.092 76.361 323.352H78.263C77.719 322.779 77.203 322.213 76.724 321.662C70.685 314.724 66.502 306.107 65.808 299.176C64.706 288.141 56.179 280.619 38.155 274.792C27.693 271.411 24.389 258.64 24.359 258.509C24.266 258.137 23.887 257.909 23.515 258.002C23.141 258.095 22.913 258.473 23.006 258.845C23.144 259.401 26.52 272.495 37.725 276.117C55.148 281.751 63.383 288.905 64.424 299.315Z" fill="#1C31B5"/>
<path d="M109.649 278.034C109.295 279.22 108.894 280.512 108.441 281.884L108.44 281.887C103.687 296.271 93.937 320.497 75.932 323.352C75.932 323.352 90.182 273.767 57.637 257.178C25.092 240.589 30.172 228.681 34.474 206.974C38.775 185.267 46.725 181.896 25.389 158.829C4.05299 135.762 11.852 105.669 11.852 105.669C11.852 105.669 30.376 142.984 54.091 146.359C77.807 149.734 79.786 170.504 77.143 185.506C74.5 200.508 94.531 204.394 104.525 214.338C114.519 224.281 111.62 270.53 111.62 270.53C111.62 270.53 110.993 273.506 109.649 278.034Z" fill="#009CF8"/>
<path d="M109.649 278.034C109.295 279.22 108.894 280.512 108.441 281.884C106.797 274.233 104.032 267.657 101.332 262.549C94.935 250.449 85.212 240.028 75.962 235.353C61.232 227.914 55.358 212.047 56.92 183.906C57.829 167.572 41.869 156.145 41.704 156.034C41.237 155.705 41.123 155.058 41.452 154.591C41.782 154.121 42.429 154.007 42.896 154.336C43.593 154.825 59.963 166.524 58.991 184.02C57.479 211.224 63.001 226.487 76.895 233.507C86.656 238.437 96.478 248.932 103.166 261.58C105.529 266.049 107.942 271.616 109.649 278.034Z" fill="#006BDE"/>
<path d="M122.558 311.692C122.613 315.462 122.681 319.385 122.764 323.352H159.124C159.193 319.009 159.246 314.847 159.286 310.942C159.395 300.359 159.408 291.65 159.399 286.237C159.395 282.397 159.379 280.22 159.379 280.22L122.303 279.827C122.303 279.827 122.303 283.03 122.331 288.269C122.355 294.091 122.42 302.427 122.558 311.692Z" fill="#18315B"/>
<path d="M122.331 288.268C122.355 294.091 122.42 302.427 122.558 311.692C133.98 312.564 146.501 312.572 159.286 310.942C159.396 300.359 159.408 291.65 159.4 286.237L122.331 288.268Z" fill="#000B29"/>
<path d="M76.735 303.332C76.776 309.259 76.846 316.048 76.964 323.353H113.327C113.417 319.076 113.489 314.85 113.548 310.813C113.674 302.148 113.739 294.347 113.771 288.739C113.799 283.22 113.799 279.827 113.799 279.827L76.706 280.22C76.706 280.22 76.678 284.153 76.686 290.77C76.687 294.269 76.703 298.515 76.735 303.332Z" fill="#18315B"/>
<path d="M76.687 290.77C76.687 294.269 76.703 298.514 76.736 303.332C84.12 305.509 97.338 308.895 113.549 310.813C113.675 302.148 113.74 294.347 113.772 288.739L76.687 290.77Z" fill="#000B29"/>
<path d="M137.641 84.753C137.641 84.753 143.484 79.126 143.465 73.569C143.445 68.012 139.668 69.654 137.641 64.476C135.614 59.298 129.591 56.14 126.288 56.772C122.985 57.404 116.011 44.521 106.553 46.794C97.094 49.067 97.917 61.192 93.843 62.96C89.769 64.728 90.905 71.927 93.053 73.569C95.2 75.211 96.109 81.809 97.317 81.66C98.524 81.511 137.641 84.753 137.641 84.753Z" fill="#18315B"/>
<path d="M98.316 84.62C98.316 84.62 94.642 79.722 91.911 83.772C89.179 87.822 93.041 99.784 99.729 96.864L98.316 84.62Z" fill="#F97853"/>
<path d="M98.269 93.168C98.022 93.168 97.795 93.005 97.725 92.755C96.689 89.062 92.862 87.565 92.824 87.55C92.533 87.439 92.386 87.113 92.497 86.821C92.607 86.529 92.934 86.382 93.225 86.493C93.404 86.56 97.62 88.197 98.814 92.45C98.898 92.751 98.723 93.062 98.423 93.147C98.371 93.161 98.319 93.168 98.269 93.168Z" fill="#EA5143"/>
<path d="M94.407 91.307C94.302 91.307 94.196 91.278 94.102 91.217C93.84 91.048 93.764 90.698 93.933 90.436C93.961 90.392 94.638 89.36 96.054 88.726C96.337 88.598 96.673 88.726 96.8 89.011C96.927 89.296 96.8 89.63 96.515 89.757C95.42 90.247 94.888 91.04 94.883 91.047C94.774 91.216 94.592 91.307 94.407 91.307Z" fill="#EA5143"/>
<path d="M136.174 84.62C136.174 84.62 139.847 79.722 142.579 83.772C145.31 87.822 141.449 99.784 134.761 96.864L136.174 84.62Z" fill="#F97853"/>
<path d="M136.221 93.168C136.468 93.168 136.695 93.005 136.765 92.755C137.801 89.062 141.627 87.565 141.666 87.55C141.957 87.439 142.104 87.113 141.993 86.821C141.882 86.529 141.556 86.382 141.265 86.493C141.086 86.56 136.87 88.197 135.676 92.45C135.592 92.751 135.767 93.062 136.068 93.147C136.119 93.161 136.171 93.168 136.221 93.168Z" fill="#EA5143"/>
<path d="M140.083 91.307C140.188 91.307 140.294 91.278 140.388 91.217C140.651 91.048 140.726 90.698 140.557 90.436C140.529 90.392 139.852 89.36 138.436 88.726C138.153 88.598 137.817 88.726 137.689 89.011C137.562 89.296 137.689 89.63 137.974 89.757C139.069 90.247 139.601 91.04 139.606 91.047C139.716 91.216 139.897 91.307 140.083 91.307Z" fill="#EA5143"/>
<path d="M126.288 107.011V118.907C126.288 118.907 122.74 124.966 117.943 125.378C113.15 125.796 108.891 120.162 108.891 120.162V107.848L126.288 107.011Z" fill="#FFA681"/>
<path d="M126.288 107.011V112.29C123.069 115.863 117.351 116.755 108.89 115.506V107.848L126.288 107.011Z" fill="#F97853"/>
<path d="M138.83 76.459C138.61 81.082 138.169 86.863 137.287 91.486C137.067 92.639 136.818 93.724 136.541 94.696C134.037 103.461 127.776 118.494 110.245 112.232C102.502 109.469 98.914 100.845 97.314 92.073C96.229 86.116 96.065 80.098 96.144 75.797C96.229 71.406 98.625 67.393 102.445 65.229C112.793 59.363 123.712 61.55 130.9 64.313C135.891 66.23 139.084 71.13 138.83 76.459Z" fill="#FFA681"/>
<path d="M97.315 92.073C97.315 92.073 99.016 102.208 100.623 105.903C102.233 109.597 106.622 110.294 108.27 113.416C110.621 117.868 114.205 121.397 120.1 119.247C125.005 117.458 124.783 114.95 127.531 113.01C132.239 109.686 134.572 106.028 134.762 102.997C134.951 99.966 137.289 91.486 137.289 91.486L134.762 91.308C134.762 91.308 133.322 94.29 131.204 97.575C129.078 92.907 118.837 96.302 118.837 96.302L116.882 96.935L114.874 96.302C114.874 96.302 104.511 93.051 102.465 97.946C101.211 96.029 100.192 93.873 99.729 91.588L97.315 92.073ZM116.881 98.514C128.627 96.498 126.528 103.375 126.452 103.622V103.626C126.448 103.63 126.448 103.63 126.448 103.63C125.652 104.388 124.841 105.024 124.034 105.46C119.483 107.919 118.991 107.548 117.195 107.627C115.369 107.714 112.849 107.172 110.292 105.744C109.496 105.297 108.307 104.433 107.003 103.243C107.003 103.243 105.158 96.934 116.881 98.514Z" fill="#18315B"/>
<path d="M109.822 86.172C109.822 87.442 109.168 88.471 108.36 88.471C107.553 88.471 106.898 87.442 106.898 86.172C106.898 84.902 107.553 83.873 108.36 83.873C109.167 83.873 109.822 84.902 109.822 86.172Z" fill="#18315B"/>
<path d="M127.2 86.172C127.2 87.442 126.545 88.471 125.738 88.471C124.931 88.471 124.276 87.442 124.276 86.172C124.276 84.902 124.93 83.873 125.738 83.873C126.545 83.873 127.2 84.902 127.2 86.172Z" fill="#18315B"/>
<path d="M131.492 78.601C131.492 78.601 125.451 76.214 120.8 78.223L121.265 80.81C121.265 80.81 128.091 80.233 131.531 81.626C131.84 80.63 131.885 79.624 131.492 78.601Z" fill="#18315B"/>
<path d="M102.771 78.613C102.771 78.613 108.856 76.208 113.541 78.232L113.072 80.838C113.072 80.838 106.195 80.256 102.73 81.66C102.421 80.657 102.375 79.643 102.771 78.613Z" fill="#18315B"/>
<path d="M117.441 95.809C118.394 95.809 119.34 95.438 119.487 95.378C119.776 95.26 119.914 94.93 119.796 94.642C119.679 94.353 119.348 94.214 119.06 94.332C118.55 94.539 117.324 94.864 116.793 94.546C116.69 94.485 116.551 94.363 116.515 94.02C116.311 92.046 116.851 85.431 116.857 85.365C116.883 85.054 116.651 84.781 116.34 84.756C116.028 84.73 115.756 84.962 115.731 85.273C115.708 85.549 115.177 92.06 115.392 94.137C115.473 94.919 115.883 95.319 116.214 95.517C116.574 95.732 117.009 95.809 117.441 95.809Z" fill="#F97853"/>
<path d="M110.237 99.645C110.666 101.804 112.092 105.775 116.896 105.775C121.712 105.775 123.062 102.146 123.526 99.645H110.237Z" fill="white"/>
<path d="M138.83 76.459C138.61 81.082 138.169 86.863 137.287 91.486L134.761 91.307C134.761 91.307 135.373 87.404 135.656 84.86C135.939 82.317 136.419 77.563 134.248 76.97C132.083 76.382 133.354 70.959 130.342 68.608C127.33 66.251 120.638 64.177 116.196 66.913C111.754 69.643 106.701 68.134 104.656 68.608C102.605 69.077 99.824 71.903 100.576 74.542C101.333 77.175 99.073 78.781 98.525 81.51C97.977 84.24 99.729 91.586 99.729 91.586L97.316 92.072C96.231 86.115 96.067 80.097 96.146 75.796C96.231 71.405 98.627 67.392 102.447 65.228C112.795 59.362 123.714 61.549 130.902 64.312C135.891 66.23 139.084 71.13 138.83 76.459Z" fill="#18315B"/>
<path d="M167.062 298.096C155.627 300.992 144.192 302.865 132.749 303.727C132.23 303.765 131.716 303.803 131.197 303.838C129.624 303.944 128.051 304.032 126.479 304.1C118.696 304.435 110.911 304.304 103.125 303.704C101.555 303.583 99.987 303.444 98.417 303.283C97.916 303.235 97.414 303.182 96.91 303.124C87.615 302.116 78.322 300.437 69.019 298.096C68.926 289.527 69.032 262.435 69.558 233.055C69.619 229.524 69.687 225.96 69.765 222.391C70.589 183.67 72.179 144.365 75.04 140.428C77.782 136.66 86.047 131.871 93.948 127.551C94.419 127.294 94.891 127.037 95.359 126.782C97.136 125.817 98.872 124.882 100.506 123.994C104.007 122.089 107.026 120.395 108.891 119.087V120.163C108.891 120.163 113.145 125.794 117.939 125.378C122.309 125.003 125.636 119.954 126.201 119.049C128.263 120.501 131.965 122.502 136.257 124.77C137.452 125.403 138.687 126.05 139.947 126.718C140.411 126.962 140.877 127.209 141.346 127.459C150.084 132.094 159.505 137.319 162.333 141.203C162.545 141.49 162.746 141.972 162.938 142.632C164.612 148.298 165.65 167.1 166.282 189.869C166.285 189.95 166.287 190.033 166.29 190.116C166.318 191.036 166.34 191.963 166.363 192.896C166.368 193.017 166.37 193.141 166.373 193.264C166.58 201.251 166.736 209.659 166.857 218.108C166.867 218.778 166.88 219.449 166.887 220.119C166.89 220.457 166.895 220.789 166.897 221.127C166.925 222.79 166.942 224.454 166.958 226.11C166.976 227.332 166.991 228.552 167.001 229.775C167.317 260.313 167.188 289.118 167.062 298.096Z" fill="#006BDE"/>
<path d="M166.364 192.897C163.612 188.403 160.658 183.816 157.875 179.758C157.867 179.748 157.86 179.738 157.855 179.728C156.686 178.024 155.549 176.416 154.468 174.947C154.45 174.919 154.433 174.894 154.413 174.871C154.075 174.41 153.74 173.961 153.412 173.525C153.359 173.449 153.319 173.371 153.294 173.288L153.291 173.285C153.203 172.99 153.301 172.663 153.561 172.466C153.896 172.211 154.373 172.277 154.625 172.612C157.967 177.04 162.242 183.407 166.284 189.869C166.287 189.95 166.289 190.033 166.292 190.116C166.319 191.037 166.341 191.965 166.364 192.897Z" fill="#264CBE"/>
<path d="M162.451 140.579C162.451 140.579 179.696 172.173 190.208 188.186C190.208 188.186 196.186 182.694 203.961 175.347C212.391 167.381 223.92 154.068 223.92 154.068L230.3 161.634C230.3 161.634 204.396 208.249 192.778 214.108C181.159 219.967 159.749 178.5 159.749 178.5L162.451 140.579Z" fill="#006BDE"/>
<path d="M89.435 265.099C89.425 265.099 89.416 265.099 89.407 265.099C88.977 265.084 88.64 264.722 88.655 264.291C89.559 238.776 76.329 230.51 76.195 230.43C75.827 230.208 75.706 229.729 75.927 229.36C76.148 228.991 76.625 228.87 76.995 229.09C77.142 229.177 80.64 231.302 84.027 236.747C87.119 241.717 90.703 250.54 90.213 264.346C90.199 264.767 89.853 265.099 89.435 265.099Z" fill="#264CBE"/>
<path d="M145.878 241.061C145.475 241.061 145.133 240.751 145.101 240.342C144.682 234.969 146.452 231.05 148.693 226.088C149.349 224.636 150.026 223.136 150.72 221.453C155.069 210.906 152.883 198.847 152.861 198.726C152.782 198.303 153.06 197.895 153.484 197.816C153.908 197.736 154.315 198.016 154.394 198.439C154.49 198.95 156.685 211.077 152.162 222.048C151.458 223.755 150.775 225.267 150.114 226.731C147.881 231.675 146.268 235.247 146.656 240.222C146.689 240.651 146.368 241.027 145.939 241.06C145.919 241.06 145.899 241.061 145.878 241.061Z" fill="#264CBE"/>
<path d="M100.506 123.994C100.839 126.506 101.328 129.765 101.862 133.466C102.025 134.565 102.188 135.705 102.355 136.876C102.897 140.699 103.458 144.859 103.935 149.065C104.064 150.194 104.185 151.327 104.299 152.456C104.72 156.62 105.038 160.757 105.152 164.603C105.19 165.766 105.205 166.903 105.198 168.006C105.19 170.942 105.027 173.64 104.671 175.948C104.443 177.407 104.243 178.831 104.065 180.226C103.917 181.382 103.785 182.518 103.667 183.636C103.212 187.975 102.985 192.014 102.921 195.821C102.902 196.977 102.898 198.11 102.91 199.22C102.944 203.543 103.19 207.571 103.546 211.405C103.652 212.553 103.769 213.682 103.891 214.796C104.357 218.987 104.925 222.976 105.46 226.921C105.615 228.05 105.767 229.175 105.915 230.301C106.146 232.104 106.366 233.908 106.555 235.723C106.756 237.648 106.885 239.898 106.945 242.395C106.975 243.486 106.99 244.627 106.994 245.805C107.009 249.537 106.914 253.671 106.74 257.994C106.695 259.123 106.645 260.267 106.589 261.423C106.396 265.439 106.142 269.569 105.858 273.646C105.775 274.794 105.691 275.935 105.604 277.071C105.289 281.315 104.941 285.449 104.588 289.294C104.482 290.461 104.376 291.602 104.27 292.708C103.864 296.94 103.471 300.703 103.126 303.704C110.912 304.303 118.699 304.435 126.481 304.098C126.663 300.904 127.159 295.751 127.648 289.685C127.739 288.575 127.826 287.431 127.913 286.264C128.205 282.407 128.47 278.285 128.644 274.124C128.693 272.984 128.735 271.839 128.765 270.699C128.883 266.546 128.886 262.42 128.708 258.552C128.655 257.377 128.587 256.229 128.496 255.112C128.405 253.968 128.295 252.854 128.163 251.778C127.788 248.739 127.644 245.822 127.663 242.935C127.667 241.791 127.697 240.654 127.75 239.514C127.928 235.558 128.36 231.595 128.86 227.386C128.993 226.268 129.133 225.131 129.273 223.972C129.724 220.229 130.194 216.258 130.565 211.912C130.663 210.798 130.751 209.658 130.834 208.491C131.092 204.763 131.266 200.758 131.293 196.393C131.3 195.268 131.297 194.12 131.282 192.945C131.24 189.167 131.081 185.125 130.774 180.771C130.747 180.385 130.721 179.994 130.691 179.6C130.634 178.838 130.585 178.069 130.551 177.3C130.35 173.329 130.403 169.245 130.627 165.172C130.688 164.028 130.763 162.884 130.851 161.739C131.165 157.662 131.624 153.623 132.154 149.751C132.309 148.599 132.472 147.459 132.639 146.337C133.276 142.093 133.961 138.1 134.59 134.531C134.799 133.357 134.999 132.227 135.189 131.151C135.617 128.741 135.988 126.593 136.261 124.774C131.968 122.504 128.266 120.504 126.205 119.053C125.64 119.959 122.314 125.005 117.941 125.381C113.148 125.798 108.893 120.167 108.893 120.167V119.091C107.026 120.395 104.007 122.089 100.506 123.994Z" fill="white"/>
<path d="M101.862 133.467C102.025 134.566 102.188 135.706 102.355 136.877C106.656 136.975 111.706 136.331 117.791 134.926C124.308 133.426 130.056 133.687 134.587 134.528C134.796 133.354 134.996 132.224 135.186 131.148C130.276 130.242 124.081 129.981 117.026 131.606C111.02 132.99 106.018 133.626 101.862 133.467Z" fill="#E3E3E3"/>
<path d="M103.935 149.066C104.064 150.195 104.185 151.328 104.299 152.457C108.16 152.355 112.601 151.71 117.792 150.509C123.184 149.266 128.056 149.236 132.152 149.747C132.307 148.595 132.47 147.455 132.637 146.333C128.196 145.784 122.911 145.829 117.027 147.186C111.986 148.35 107.652 148.986 103.935 149.066Z" fill="#E3E3E3"/>
<path d="M105.151 164.604C105.189 165.767 105.204 166.904 105.197 168.007C108.846 167.836 112.999 167.2 117.791 166.093C122.527 165.002 126.862 164.846 130.624 165.169C130.685 164.025 130.76 162.881 130.848 161.736C126.801 161.403 122.137 161.592 117.026 162.77C112.528 163.809 108.591 164.427 105.151 164.604Z" fill="#E3E3E3"/>
<path d="M103.666 183.636C107.675 183.591 112.312 182.939 117.791 181.677C122.588 180.571 126.975 180.427 130.772 180.768C130.745 180.382 130.719 179.991 130.689 179.597C130.632 178.835 130.583 178.066 130.549 177.297C126.571 176.998 122.013 177.202 117.026 178.354C112.044 179.506 107.754 180.135 104.064 180.226C103.916 181.382 103.783 182.519 103.666 183.636Z" fill="#E3E3E3"/>
<path d="M102.908 199.22C107.087 199.254 111.964 198.606 117.791 197.261C122.819 196.102 127.385 195.992 131.291 196.39C131.298 195.265 131.295 194.117 131.28 192.942C127.135 192.559 122.323 192.718 117.026 193.938C111.521 195.207 106.86 195.848 102.92 195.821C102.9 196.977 102.896 198.11 102.908 199.22Z" fill="#E3E3E3"/>
<path d="M103.544 211.406C103.65 212.554 103.767 213.683 103.889 214.797C107.845 214.733 112.414 214.085 117.791 212.846C122.508 211.759 126.824 211.592 130.564 211.91C130.662 210.796 130.75 209.656 130.833 208.489C126.786 208.156 122.13 208.345 117.026 209.523C111.812 210.724 107.349 211.364 103.544 211.406Z" fill="#E3E3E3"/>
<path d="M105.458 226.921C105.613 228.05 105.765 229.175 105.913 230.301C109.388 230.085 113.305 229.464 117.791 228.429C121.807 227.501 125.532 227.247 128.859 227.383C128.992 226.265 129.132 225.128 129.272 223.969C125.604 223.802 121.486 224.075 117.026 225.106C112.657 226.111 108.822 226.724 105.458 226.921Z" fill="#E3E3E3"/>
<path d="M106.943 242.395C106.973 243.486 106.988 244.627 106.992 245.805C110.194 245.536 113.767 244.941 117.79 244.009C121.333 243.194 124.648 242.899 127.66 242.933C127.664 241.789 127.694 240.652 127.747 239.512C124.477 239.478 120.878 239.8 117.024 240.69C113.29 241.551 109.94 242.123 106.943 242.395Z" fill="#E3E3E3"/>
<path d="M106.587 261.423C109.891 261.169 113.593 260.559 117.791 259.593C121.743 258.684 125.415 258.422 128.707 258.551C128.654 257.376 128.586 256.228 128.495 255.111C125.028 255.012 121.175 255.316 117.026 256.27C113.203 257.153 109.789 257.733 106.739 257.994C106.693 259.124 106.644 260.268 106.587 261.423Z" fill="#E3E3E3"/>
<path d="M105.602 277.072C109.152 276.871 113.172 276.242 117.791 275.178C121.72 274.272 125.369 274.007 128.643 274.125C128.692 272.985 128.734 271.84 128.764 270.7C125.229 270.579 121.285 270.874 117.026 271.856C112.832 272.826 109.126 273.428 105.856 273.648C105.772 274.795 105.689 275.935 105.602 277.072Z" fill="#E3E3E3"/>
<path d="M104.268 292.709C108.137 292.611 112.585 291.963 117.791 290.761C121.326 289.946 124.638 289.647 127.646 289.685C127.737 288.575 127.824 287.431 127.911 286.264C124.596 286.215 120.943 286.533 117.025 287.438C112.278 288.533 108.155 289.158 104.586 289.295C104.48 290.462 104.374 291.603 104.268 292.709Z" fill="#E3E3E3"/>
<path d="M131.196 303.837C131.715 303.803 132.23 303.765 132.749 303.727C135.818 285.684 134.049 259.199 133.389 251.083C132.707 242.656 134.018 231.82 136.985 221.362C139.289 213.239 137.875 194.404 136.742 179.271C136.424 175.024 136.121 171.011 135.943 167.715C135.363 157.06 139.22 137.343 141.346 127.461C140.876 127.211 140.41 126.965 139.948 126.718C137.819 136.501 133.821 156.666 134.427 167.798C134.609 171.11 134.912 175.13 135.23 179.385C136.355 194.401 137.757 213.084 135.529 220.946C132.513 231.574 131.183 242.604 131.88 251.204C132.537 259.332 134.318 285.983 131.196 303.837Z" fill="#264CBE"/>
<path d="M99.759 230.422C101.563 241.516 100.994 248.723 100.335 257.062C100.123 259.76 99.903 262.545 99.748 265.621C99.267 275.275 97.634 294.716 96.91 303.124C97.414 303.181 97.914 303.234 98.418 303.283C99.142 294.875 100.779 275.385 101.263 265.697C101.415 262.643 101.634 259.866 101.847 257.183C102.51 248.745 103.086 241.455 101.252 230.179C100.862 227.758 100.445 225.303 100.032 222.859C97.99 210.768 95.875 198.265 96.876 192.275C97.118 190.812 97.429 189.153 97.763 187.395C99.119 180.166 100.813 171.171 100.279 163.365C99.748 155.628 96.577 134.679 95.361 126.783C94.891 127.037 94.422 127.295 93.948 127.552C95.217 135.808 98.252 155.954 98.767 163.467C99.286 171.079 97.615 179.972 96.274 187.114C95.94 188.88 95.626 190.547 95.38 192.024C94.342 198.265 96.38 210.332 98.54 223.112C98.952 225.554 99.365 228.005 99.759 230.422Z" fill="#264CBE"/>
<path d="M69.935 153.295C69.935 153.295 54.498 204.774 50.675 223.12C46.852 241.466 46.556 279.605 46.556 279.605C46.556 279.605 39.807 293.615 39.648 299.849C39.478 306.495 42.967 311.784 42.569 316.133C42.171 320.483 47.466 318.121 45.97 309.311C44.474 300.501 48.718 292.522 50.55 292.778C52.382 293.034 49.034 302.397 50.661 305.771C52.287 309.145 54.393 302.591 56.486 298.614C58.66 294.484 58.532 285.474 57.543 279.042C56.554 272.61 68.213 233.542 68.269 222.222L83.033 172.333C83.033 172.333 78.156 151.507 69.935 153.295Z" fill="#FFA681"/>
<path d="M84.925 171.08C84.402 174.388 82.572 180.067 80.208 187.213V187.217C80.007 187.819 79.802 188.433 79.598 189.058C79.587 189.084 79.575 189.115 79.568 189.145C78.977 190.922 78.359 192.782 77.723 194.707C77.719 194.718 77.716 194.73 77.712 194.741C75.094 202.69 72.195 211.784 69.763 221.127C68.926 224.325 68.145 227.557 67.452 230.777C66.565 234.888 65.815 238.988 65.266 243C63.292 257.455 59.518 275.763 59.518 275.763C53.982 278.036 45.328 275.036 45.328 275.036C45.328 275.036 45.104 248.669 46.34 238.423C47.867 225.756 49.811 216.739 52.22 206.387C58.851 177.898 70.521 150.023 73.722 142.63C73.976 142.039 74.177 141.58 74.317 141.262H77.072C82.493 144.709 86.339 162.168 84.925 171.08Z" fill="#006BDE"/>
<path d="M44.877 269.758L45.311 275.825C45.311 275.825 53.539 278.499 59.707 276.616L61.338 271.204C55.399 271.518 49.912 271.372 44.877 269.758Z" fill="#009CF8"/>
<path d="M80.208 187.213V187.217C80.208 187.304 80.193 187.391 80.163 187.478C79.977 187.99 79.788 188.516 79.598 189.058C79.587 189.084 79.575 189.115 79.568 189.145C78.962 190.865 78.344 192.737 77.723 194.707C77.719 194.718 77.716 194.73 77.712 194.741C74.488 204.986 71.21 217.876 69.702 226.11C69.717 224.454 69.736 222.791 69.763 221.128C68.926 224.326 68.145 227.558 67.452 230.778C67.763 227.758 68.627 223.234 69.805 218.108C72.185 207.734 75.837 194.885 78.739 186.959C78.883 186.565 79.319 186.364 79.713 186.508C80.019 186.622 80.208 186.906 80.208 187.213Z" fill="#264CBE"/>
<path d="M356.347 323.353H392.812C392.691 320.824 392.571 318.399 392.455 316.11C391.819 303.624 391.279 295.122 391.279 295.122L361.624 296.439L359.165 296.55L354.803 296.745C354.803 296.745 355.224 304.347 355.879 315.485C356.023 317.948 356.18 320.587 356.347 323.353Z" fill="#18315B"/>
<path d="M359.164 296.55L354.802 296.745C354.802 296.745 355.223 304.347 355.878 315.485C367.272 316.435 379.712 316.822 392.454 316.109C391.818 303.623 391.278 295.121 391.278 295.121L361.623 296.438L359.164 296.55Z" fill="#000B29"/>
<path d="M363.135 323.353C362.468 311.796 361.922 301.922 361.622 296.44L359.163 296.551C359.462 302.008 360.006 311.836 360.671 323.353H363.135Z" fill="#000B29"/>
<path d="M345.649 323.353C345.837 320.222 346.013 317.253 346.174 314.516C346.802 303.907 347.196 296.745 347.196 296.745L342.462 296.534L340.007 296.423L310.716 295.121C310.716 295.121 310.394 300.188 309.954 308.242C309.721 312.534 309.454 317.678 309.184 323.352H345.649V323.353Z" fill="#18315B"/>
<path d="M309.953 308.242C317.904 310.111 330.723 312.735 346.173 314.515C346.801 303.906 347.195 296.744 347.195 296.744L342.461 296.533L340.006 296.422L310.715 295.12C310.715 295.12 310.394 300.188 309.953 308.242Z" fill="#000B29"/>
<path d="M340.954 323.353C341.619 311.824 342.163 301.988 342.461 296.535L340.006 296.424C339.706 301.903 339.159 311.784 338.492 323.353H340.954Z" fill="#000B29"/>
<path d="M396.573 300.805C389.145 302.849 381.718 304.392 374.29 305.427C371.707 305.79 369.126 306.092 366.545 306.329C363.064 306.652 359.584 306.868 356.106 306.977C350.352 307.153 344.598 307.027 338.841 306.601C327.713 305.787 316.588 303.844 305.458 300.804C305.355 290.428 305.511 253.217 306.29 217.326C306.328 215.715 306.363 214.105 306.403 212.502C306.408 212.162 306.418 211.821 306.426 211.481C306.434 211.11 306.444 210.74 306.454 210.372C306.479 209.233 306.509 208.099 306.537 206.97C306.595 204.664 306.655 202.378 306.721 200.115C306.761 198.762 306.802 197.416 306.842 196.082C306.849 195.805 306.86 195.53 306.867 195.255C306.895 194.375 306.922 193.501 306.95 192.631C306.95 192.631 306.95 192.631 306.95 192.628C306.96 192.358 306.968 192.089 306.978 191.819C307.003 191.017 307.031 190.221 307.056 189.432C307.081 188.759 307.104 188.096 307.127 187.431C307.989 163.22 309.249 144.123 311.054 141.431C314.114 136.867 324.536 130.808 332.918 125.875C335.905 124.121 339.471 122.296 341.512 120.943C344.489 123.34 346.649 125.505 351.062 125.356C355.999 125.187 357.217 122.218 359.1 119.672C360.249 120.418 363.168 122.812 364.685 123.702C365.983 124.468 367.389 125.28 368.856 126.124C371.124 127.422 373.536 128.801 375.926 130.207C379.467 132.291 382.958 134.441 385.854 136.495C388.745 138.549 391.041 140.512 392.178 142.214C393.816 144.674 394.877 160.6 395.56 181.56C395.588 182.293 395.608 183.037 395.636 183.785C395.639 183.876 395.639 183.966 395.639 184.06C395.667 184.821 395.69 185.603 395.707 186.384C395.775 188.743 395.838 191.153 395.904 193.602C395.917 194.119 395.929 194.64 395.937 195.16C395.947 195.551 395.96 195.944 395.962 196.329C395.985 197.337 396.007 198.348 396.03 199.368C396.035 199.572 396.038 199.776 396.043 199.981C396.099 202.67 396.151 205.397 396.199 208.147C396.214 208.951 396.227 209.758 396.239 210.564C396.86 248.301 396.716 289.655 396.573 300.805Z" fill="#006BDE"/>
<path d="M396.237 210.568L384.475 222.499L373.516 211.389L362.56 222.499L351.561 211.344L340.557 222.499L329.485 211.271L318.41 222.499L306.453 210.373C306.478 209.234 306.508 208.1 306.536 206.971C306.594 204.665 306.654 202.379 306.72 200.116L318.41 188.26L329.485 199.491L340.557 188.26L351.561 199.415L362.56 188.26L373.516 199.37L384.475 188.26L396.041 199.985C396.097 202.674 396.149 205.401 396.197 208.151C396.212 208.955 396.225 209.761 396.237 210.568Z" fill="#264CBE"/>
<path d="M375.934 272.064H375.931C360.181 271.995 346.738 264.828 338.234 258.828C329.037 252.339 323.463 245.764 323.408 245.698C323.139 245.378 323.18 244.9 323.5 244.63C323.821 244.361 324.299 244.402 324.568 244.722C324.622 244.786 330.095 251.236 339.143 257.614C347.462 263.478 360.599 270.481 375.938 270.549C376.356 270.551 376.694 270.892 376.693 271.31C376.69 271.727 376.351 272.064 375.934 272.064Z" fill="#264CBE"/>
<path d="M366.11 262.749C352.7 260.113 340.83 249.842 340.291 249.371C339.976 249.095 339.944 248.617 340.219 248.302C340.495 247.987 340.973 247.956 341.288 248.23C341.427 248.352 355.396 260.431 369.631 261.73C370.054 261.765 370.355 262.137 370.317 262.553C370.279 262.97 369.91 263.277 369.494 263.239C368.359 263.136 367.229 262.969 366.11 262.749Z" fill="#264CBE"/>
<path d="M339.253 146.2C338.896 146.2 338.578 145.947 338.509 145.583C338.431 145.172 338.701 144.775 339.112 144.697C358.314 141.053 364.101 128.701 364.158 128.576C364.33 128.195 364.779 128.025 365.161 128.198C365.542 128.37 365.712 128.819 365.539 129.201C365.296 129.738 359.363 142.398 339.395 146.187C339.348 146.195 339.3 146.2 339.253 146.2Z" fill="#264CBE"/>
<path d="M315.824 179.451V179.456C315.806 179.539 315.768 179.622 315.721 179.698C315.434 180.159 315.134 180.636 314.834 181.122C314.819 181.15 314.801 181.172 314.789 181.203C313.829 182.756 312.828 184.452 311.797 186.244C311.794 186.257 311.789 186.264 311.779 186.274C310.168 189.094 308.5 192.152 306.867 195.257C306.895 194.377 306.922 193.503 306.95 192.633C306.95 192.633 306.95 192.633 306.95 192.63C306.96 192.36 306.968 192.091 306.978 191.821C309.612 186.931 312.238 182.357 314.441 178.889C314.668 178.534 315.134 178.433 315.489 178.655C315.764 178.834 315.89 179.151 315.824 179.451Z" fill="#264CBE"/>
<path d="M412.583 151.365C412.583 151.365 437.138 143.473 444.404 127.36C446.506 122.693 429.192 75.314 429.192 75.314L420.835 75.718C420.835 75.718 423.217 92.157 424.66 101.465C425.847 109.118 427.765 118.263 428.412 121.274C428.553 121.927 428.632 122.29 428.632 122.29C428.222 122.361 427.811 122.44 427.393 122.523C415.921 124.853 401.273 132.326 401.273 132.326L412.583 151.365Z" fill="#FFA681"/>
<path d="M434.8 126.832C435.149 127.086 435.648 127.01 435.898 126.659C436.162 126.303 436.082 125.81 435.725 125.561C433.939 124.263 431.243 122.74 428.412 121.275C428.553 121.928 428.632 122.291 428.632 122.291C428.222 122.362 427.811 122.441 427.393 122.524C430.275 124.005 433.034 125.547 434.8 126.832Z" fill="#F97853"/>
<path d="M375.012 129.689C375.012 129.689 367.585 147.119 386.494 156.823C399.58 163.539 429.39 146.005 429.39 146.005L418.762 123.44C418.762 123.44 391.487 134.691 375.012 129.689Z" fill="#006BDE"/>
<path d="M424.914 48.676C424.174 49.195 424.325 52.396 424.651 55.411C424.547 55.426 424.44 55.444 424.333 55.463C423.454 51.439 421.704 44.595 420.208 45.901C419.228 46.756 420.54 52.658 421.434 56.187C421.249 56.244 421.064 56.302 420.879 56.362C419.752 52.172 417.322 44.101 415.705 45.67C414.626 46.717 416.697 53.824 417.847 57.449C417.686 57.512 417.53 57.573 417.376 57.634C416.276 54.117 413.926 47.464 412.316 49.027C410.858 50.442 415.035 60.5 415.035 60.5L416.13 64.448C416.13 64.448 414.829 65.01 412.797 62.712C410.765 60.414 408.337 60.01 410.024 63.334C411.931 67.091 414.753 69.785 415.995 72.443C417.238 75.101 421.146 75.98 421.146 75.98L428.993 75.601C428.993 75.601 430.515 62.338 427.588 56.016C427.086 52.26 426.202 47.773 424.914 48.676Z" fill="#FFA681"/>
<path d="M327.824 79.263C327.824 92.629 336.052 101.839 349.413 101.839C362.779 101.839 372.097 91.938 372.097 78.571C372.097 74.885 371.496 71.443 370.339 68.397C370.271 68.216 370.203 68.034 370.129 67.858C369.987 67.512 369.84 67.166 369.681 66.832C369.448 66.316 369.188 65.811 368.915 65.324C365.433 59.063 359.195 55.082 350.814 55.082C334.788 55.083 327.824 65.897 327.824 79.263Z" fill="#18315B"/>
<path d="M330.825 85.018C330.825 85.018 327.112 80.067 324.351 84.161C321.59 88.255 325.494 100.347 332.253 97.395L330.825 85.018Z" fill="#F97853"/>
<path d="M330.777 93.659C330.527 93.659 330.298 93.494 330.227 93.242C329.179 89.509 325.312 87.996 325.273 87.981C324.979 87.868 324.83 87.539 324.942 87.244C325.054 86.949 325.383 86.801 325.678 86.912C325.859 86.98 330.121 88.634 331.327 92.933C331.412 93.237 331.235 93.552 330.931 93.637C330.88 93.652 330.828 93.659 330.777 93.659Z" fill="#EA5143"/>
<path d="M326.873 91.778C326.767 91.778 326.66 91.749 326.564 91.687C326.299 91.516 326.222 91.163 326.393 90.897C326.422 90.853 327.106 89.809 328.537 89.169C328.824 89.039 329.163 89.169 329.292 89.457C329.421 89.745 329.292 90.083 329.004 90.211C327.897 90.706 327.359 91.508 327.354 91.516C327.245 91.686 327.061 91.778 326.873 91.778Z" fill="#EA5143"/>
<path d="M369.092 85.018C369.092 85.018 372.805 80.067 375.566 84.161C378.327 88.255 374.423 100.347 367.663 97.395L369.092 85.018Z" fill="#F97853"/>
<path d="M369.14 93.659C369.389 93.659 369.619 93.494 369.69 93.242C370.738 89.509 374.605 87.996 374.644 87.981C374.938 87.868 375.087 87.539 374.975 87.244C374.863 86.949 374.534 86.801 374.239 86.912C374.058 86.98 369.796 88.634 368.589 92.933C368.504 93.237 368.681 93.552 368.985 93.637C369.037 93.652 369.089 93.659 369.14 93.659Z" fill="#EA5143"/>
<path d="M373.044 91.778C373.15 91.778 373.257 91.749 373.353 91.687C373.618 91.516 373.695 91.163 373.524 90.897C373.496 90.853 372.811 89.809 371.38 89.169C371.094 89.039 370.754 89.169 370.625 89.457C370.496 89.745 370.625 90.083 370.913 90.211C372.02 90.706 372.558 91.508 372.563 91.516C372.672 91.686 372.856 91.778 373.044 91.778Z" fill="#EA5143"/>
<path d="M359.099 107.651V119.676C359.099 119.676 355.513 125.8 350.663 126.217C345.818 126.64 341.513 120.944 341.513 120.944V108.496L359.099 107.651Z" fill="#FFA681"/>
<path d="M359.099 107.651V112.987C355.845 116.598 350.065 117.5 341.513 116.237V108.496L359.099 107.651Z" fill="#F97853"/>
<path d="M371.777 76.769C371.554 81.442 371.108 87.286 370.217 91.959C369.994 93.124 369.743 94.221 369.463 95.204C366.932 104.064 360.603 119.26 342.882 112.93C335.056 110.136 331.428 101.419 329.812 92.553C328.715 86.532 328.549 80.448 328.63 76.101C328.716 71.663 331.138 67.606 335 65.418C345.46 59.488 356.497 61.699 363.763 64.493C368.806 66.429 372.034 71.382 371.777 76.769Z" fill="#FFA681"/>
<path d="M342.36 86.587C342.36 87.871 341.698 88.911 340.882 88.911C340.066 88.911 339.404 87.871 339.404 86.587C339.404 85.303 340.066 84.263 340.882 84.263C341.699 84.263 342.36 85.304 342.36 86.587Z" fill="#18315B"/>
<path d="M359.777 86.54C359.777 87.824 359.116 88.864 358.299 88.864C357.483 88.864 356.821 87.824 356.821 86.54C356.821 85.256 357.483 84.216 358.299 84.216C359.115 84.215 359.777 85.256 359.777 86.54Z" fill="#18315B"/>
<path d="M363.116 78.552C363.116 78.552 358.454 76.709 354.864 78.26L355.223 80.256C355.223 80.256 360.492 79.81 363.146 80.886C363.384 80.119 363.419 79.342 363.116 78.552Z" fill="#18315B"/>
<path d="M335.952 78.552C335.952 78.552 340.614 76.709 344.204 78.26L343.845 80.256C343.845 80.256 338.577 79.81 335.922 80.886C335.684 80.119 335.649 79.342 335.952 78.552Z" fill="#18315B"/>
<path d="M350.157 96.328C351.121 96.328 352.076 95.953 352.225 95.892C352.517 95.773 352.656 95.44 352.537 95.147C352.418 94.855 352.084 94.715 351.793 94.834C351.277 95.043 350.038 95.372 349.501 95.051C349.398 94.989 349.256 94.866 349.22 94.519C349.014 92.524 349.56 85.837 349.565 85.77C349.591 85.456 349.357 85.18 349.043 85.154C348.727 85.127 348.453 85.362 348.427 85.676C348.404 85.955 347.867 92.537 348.084 94.636C348.166 95.426 348.581 95.831 348.915 96.031C349.281 96.251 349.72 96.328 350.157 96.328Z" fill="#F97853"/>
<path d="M342.486 99.229C343.436 102.525 346.135 105.813 349.854 105.859C353.569 105.814 356.269 102.525 357.218 99.229H342.486Z" fill="white"/>
<path d="M349.536 109.439C351.015 109.439 352.268 108.69 352.321 108.658C352.591 108.495 352.677 108.143 352.514 107.873C352.351 107.603 351.999 107.517 351.729 107.68C351.72 107.686 350.688 108.295 349.536 108.295C348.479 108.295 347.467 107.689 347.457 107.682C347.189 107.517 346.837 107.599 346.671 107.868C346.505 108.136 346.588 108.488 346.857 108.654C346.908 108.688 348.14 109.439 349.536 109.439Z" fill="#F97853"/>
<path d="M371.173 85.119H368.584C368.87 82.52 369.28 77.942 367.146 77.286C360.4 75.214 369.142 70.447 366.097 68.07C363.052 65.688 355.473 66.709 350.202 66.538C344.899 66.366 336.376 66.441 334.308 66.921C332.234 67.395 333.371 70.838 334.131 73.506C334.897 76.168 331.589 79.116 331.035 81.876C330.876 82.668 330.909 83.844 331.036 85.119H328.878C328.622 81.761 328.584 78.635 328.63 76.1C328.716 71.662 331.138 67.605 335 65.417C345.46 59.487 356.497 61.698 363.763 64.492C368.807 66.428 372.035 71.381 371.778 76.768C371.655 79.329 371.465 82.241 371.173 85.119Z" fill="#18315B"/>
<path d="M340.622 93.317C337.056 93.317 334.155 90.416 334.155 86.85C334.155 83.284 337.056 80.383 340.622 80.383C344.188 80.383 347.089 83.284 347.089 86.85C347.089 90.416 344.188 93.317 340.622 93.317ZM340.622 81.391C337.612 81.391 335.163 83.84 335.163 86.85C335.163 89.86 337.612 92.309 340.622 92.309C343.632 92.309 346.081 89.86 346.081 86.85C346.081 83.84 343.632 81.391 340.622 81.391Z" fill="white"/>
<path d="M358.299 93.317C354.733 93.317 351.832 90.416 351.832 86.85C351.832 83.284 354.733 80.383 358.299 80.383C361.865 80.383 364.766 83.284 364.766 86.85C364.766 90.416 361.865 93.317 358.299 93.317ZM358.299 81.391C355.289 81.391 352.84 83.84 352.84 86.85C352.84 89.86 355.289 92.309 358.299 92.309C361.309 92.309 363.758 89.86 363.758 86.85C363.758 83.84 361.309 81.391 358.299 81.391Z" fill="white"/>
<path d="M335.248 84.767C335.12 84.767 334.991 84.718 334.893 84.621C334.864 84.592 331.926 81.742 328.072 82.641C327.802 82.705 327.53 82.536 327.467 82.265C327.404 81.994 327.572 81.723 327.843 81.66C332.25 80.632 335.468 83.772 335.603 83.907C335.8 84.103 335.801 84.423 335.605 84.62C335.507 84.718 335.377 84.767 335.248 84.767Z" fill="white"/>
<path d="M363.792 84.767C363.628 84.767 363.466 84.686 363.369 84.538C363.217 84.305 363.282 83.993 363.515 83.841C363.708 83.715 368.284 80.763 372.178 81.404C372.453 81.449 372.639 81.709 372.593 81.983C372.548 82.257 372.29 82.443 372.014 82.398C368.509 81.821 364.111 84.655 364.066 84.684C363.982 84.741 363.887 84.767 363.792 84.767Z" fill="white"/>
<path d="M352.187 85.398C352.176 85.382 350.978 83.763 349.403 83.763C347.844 83.763 346.761 85.38 346.751 85.396L345.907 84.845C345.963 84.76 347.292 82.755 349.403 82.755C351.498 82.755 352.944 84.725 353.004 84.809L352.187 85.398Z" fill="white"/>
<path d="M313.695 178.501C313.695 178.501 306.882 191.693 298.86 202.142C296.493 205.224 294.023 208.067 291.589 210.263C287.645 213.824 283.799 215.687 280.666 214.106C269.047 208.249 243.145 161.634 243.145 161.634L249.524 154.068C249.524 154.068 261.052 167.381 269.483 175.348C277.258 182.695 283.237 188.187 283.237 188.187C284.313 186.549 285.46 184.754 286.652 182.854C287.92 180.838 289.235 178.703 290.574 176.508C300.282 160.569 311.055 141.434 311.055 141.434L313.695 178.501Z" fill="#FFA681"/>
<path d="M298.86 202.142C296.493 205.224 294.023 208.067 291.589 210.263L286.652 182.854C287.92 180.838 289.235 178.703 290.574 176.508L298.86 202.142Z" fill="#F97853"/>
<path d="M311.053 141.434L287.769 178.054L295.584 210.263L314.852 178.889C314.852 178.889 317.188 157.425 311.053 141.434Z" fill="#006BDE"/>
<path d="M281.776 323.353C280.113 314.137 278.474 303.743 276.984 293.65C276.657 291.418 276.338 289.205 276.022 287.021C274.827 278.664 273.76 270.762 272.903 264.204C272.576 261.713 272.283 259.413 272.016 257.361C271.185 250.815 270.697 246.749 270.697 246.749L233.928 248.139L197.046 246.749C197.046 246.749 196.095 254.794 194.573 266.458C194.295 268.581 193.998 270.82 193.686 273.158C192.867 279.279 191.931 286.039 190.924 292.961C190.909 293.062 190.894 293.164 190.879 293.265C190.563 295.422 190.244 297.594 189.913 299.766C189.909 299.796 189.906 299.822 189.898 299.852V299.856C189.109 305.105 188.282 310.347 187.441 315.39C187.095 317.472 186.746 319.516 186.392 321.507C186.283 322.128 186.173 322.741 186.064 323.351H281.776V323.353Z" fill="#006BDE"/>
<path d="M205.522 257.793C205.522 259.707 203.971 261.259 202.057 261.259C200.143 261.259 198.591 259.707 198.591 257.793C198.591 255.879 200.143 254.328 202.057 254.328C203.971 254.328 205.522 255.879 205.522 257.793Z" fill="#264CBE"/>
<path d="M214.122 271.219C214.122 273.133 212.57 274.684 210.657 274.684C208.743 274.684 207.191 273.132 207.191 271.219C207.191 269.305 208.743 267.754 210.657 267.754C212.57 267.753 214.122 269.305 214.122 271.219Z" fill="#264CBE"/>
<path d="M231.041 264.288C231.041 266.202 229.489 267.753 227.576 267.753C225.662 267.753 224.111 266.201 224.111 264.288C224.111 262.374 225.662 260.823 227.576 260.823C229.49 260.823 231.041 262.374 231.041 264.288Z" fill="#264CBE"/>
<path d="M204.338 285.477C204.338 287.391 202.786 288.943 200.873 288.943C198.959 288.943 197.408 287.391 197.408 285.477C197.408 283.563 198.959 282.012 200.873 282.012C202.786 282.012 204.338 283.563 204.338 285.477Z" fill="#264CBE"/>
<path d="M225.48 283.995C225.48 285.909 223.929 287.46 222.015 287.46C220.101 287.46 218.55 285.909 218.55 283.995C218.55 282.081 220.102 280.53 222.015 280.53C223.928 280.53 225.48 282.081 225.48 283.995Z" fill="#264CBE"/>
<path d="M196.829 269.709C196.829 271.513 195.454 272.997 193.688 273.159C194 270.822 194.297 268.582 194.575 266.459C195.894 266.951 196.829 268.217 196.829 269.709Z" fill="#264CBE"/>
<path d="M259.933 304.355C259.933 306.269 258.382 307.82 256.468 307.82C254.554 307.82 253.002 306.268 253.002 304.355C253.002 302.441 254.554 300.889 256.468 300.889C258.381 300.889 259.933 302.441 259.933 304.355Z" fill="#264CBE"/>
<path d="M258.296 285.477C258.296 287.391 256.744 288.943 254.831 288.943C252.917 288.943 251.366 287.391 251.366 285.477C251.366 283.563 252.918 282.012 254.831 282.012C256.744 282.012 258.296 283.563 258.296 285.477Z" fill="#264CBE"/>
<path d="M276.984 293.649C276.567 293.826 276.105 293.923 275.624 293.923C273.711 293.923 272.159 292.371 272.159 290.458C272.159 288.545 273.711 286.994 275.624 286.994C275.759 286.994 275.891 287.001 276.022 287.02C276.338 289.204 276.657 291.417 276.984 293.649Z" fill="#264CBE"/>
<path d="M261.761 318.19C261.761 320.104 260.209 321.655 258.296 321.655C256.382 321.655 254.831 320.104 254.831 318.19C254.831 316.276 256.382 314.724 258.296 314.724C260.209 314.724 261.761 316.276 261.761 318.19Z" fill="#264CBE"/>
<path d="M276.584 312.658C276.584 314.572 275.032 316.123 273.118 316.123C271.204 316.123 269.653 314.571 269.653 312.658C269.653 310.744 271.204 309.193 273.118 309.193C275.033 309.192 276.584 310.744 276.584 312.658Z" fill="#264CBE"/>
<path d="M245.74 323.353C245.117 322.442 244.072 321.843 242.884 321.843C241.696 321.843 240.651 322.442 240.028 323.353H245.74Z" fill="#264CBE"/>
<path d="M202.057 307.369C202.057 309.283 200.505 310.834 198.591 310.834C196.677 310.834 195.126 309.283 195.126 307.369C195.126 305.455 196.677 303.903 198.591 303.903C200.506 303.903 202.057 305.455 202.057 307.369Z" fill="#264CBE"/>
<path d="M192.914 296.422C192.914 298.181 191.603 299.635 189.9 299.853C189.908 299.823 189.911 299.797 189.915 299.767C190.246 297.595 190.565 295.423 190.881 293.266C192.079 293.815 192.914 295.021 192.914 296.422Z" fill="#264CBE"/>
<path d="M188.863 318.187C188.863 319.754 187.822 321.077 186.394 321.509C186.747 319.518 187.097 317.473 187.443 315.392C188.303 316.022 188.863 317.041 188.863 318.187Z" fill="#264CBE"/>
<path d="M210.657 319.654C210.657 321.568 209.105 323.12 207.191 323.12C205.277 323.12 203.726 321.568 203.726 319.654C203.726 317.74 205.278 316.189 207.191 316.189C209.105 316.188 210.657 317.74 210.657 319.654Z" fill="#264CBE"/>
<path d="M228.945 316.94C228.945 318.854 227.393 320.406 225.48 320.406C223.567 320.406 222.015 318.854 222.015 316.94C222.015 315.026 223.566 313.475 225.48 313.475C227.394 313.475 228.945 315.026 228.945 316.94Z" fill="#264CBE"/>
<path d="M215.898 299.901C215.898 301.815 214.346 303.367 212.432 303.367C210.518 303.367 208.967 301.815 208.967 299.901C208.967 297.987 210.518 296.436 212.432 296.436C214.346 296.436 215.898 297.988 215.898 299.901Z" fill="#264CBE"/>
<path d="M234.507 296.436C234.507 298.35 232.956 299.901 231.042 299.901C229.128 299.901 227.577 298.35 227.577 296.436C227.577 294.522 229.129 292.971 231.042 292.971C232.955 292.971 234.507 294.522 234.507 296.436Z" fill="#264CBE"/>
<path d="M242.884 278.15C242.884 280.064 241.333 281.615 239.419 281.615C237.505 281.615 235.953 280.063 235.953 278.15C235.953 276.236 237.505 274.684 239.419 274.684C241.332 274.684 242.884 276.236 242.884 278.15Z" fill="#264CBE"/>
<path d="M272.903 264.204C272.663 264.26 272.415 264.287 272.159 264.287C270.242 264.287 268.694 262.735 268.694 260.822C268.694 258.958 270.167 257.433 272.016 257.361C272.283 259.413 272.577 261.713 272.903 264.204Z" fill="#264CBE"/>
<path d="M254.83 264.288C254.83 266.202 253.278 267.753 251.365 267.753C249.451 267.753 247.9 266.201 247.9 264.288C247.9 262.374 249.451 260.823 251.365 260.823C253.279 260.823 254.83 262.374 254.83 264.288Z" fill="#264CBE"/>
<path d="M267.523 276.638C267.523 278.552 265.972 280.103 264.058 280.103C262.144 280.103 260.593 278.551 260.593 276.638C260.593 274.724 262.145 273.172 264.058 273.172C265.971 273.172 267.523 274.724 267.523 276.638Z" fill="#264CBE"/>
<path d="M246.349 307.369C246.349 309.283 244.797 310.834 242.884 310.834C240.97 310.834 239.419 309.283 239.419 307.369C239.419 305.455 240.97 303.903 242.884 303.903C244.798 303.903 246.349 305.455 246.349 307.369Z" fill="#264CBE"/>
<path d="M272.934 247.659C253.537 260.322 217.922 259.33 195.541 247.659C197.679 234.342 200.494 221.009 199.889 203.285C199.821 201.342 199.739 199.411 199.641 197.498C199.555 195.833 199.457 194.18 199.352 192.545C197.42 163.058 192.389 138.949 194.861 135.834C195.94 134.47 197.739 132.997 199.96 131.49C200.832 130.896 201.764 130.295 202.748 129.694C205.07 128.277 207.652 126.849 210.244 125.459C216.395 122.175 222.64 119.127 225.771 117.046C228.875 118.399 231.347 119.139 234.012 119.124C234.083 119.124 234.162 119.124 234.241 119.116C234.313 119.124 234.391 119.124 234.463 119.124C237.127 119.139 239.6 118.399 242.707 117.046C245.612 118.978 251.079 121.672 256.659 124.61C260.759 126.771 264.918 129.063 268.157 131.287C270.276 132.741 272.009 134.169 273.068 135.507C274.293 137.051 273.778 143.823 272.73 153.856C271.693 163.727 270.141 176.763 269.202 191.091C268.943 195.07 268.729 199.147 268.586 203.285C267.985 221.01 270.796 234.342 272.934 247.659Z" fill="#009CF8"/>
<path d="M261.072 232.932H261.069C245.449 232.863 232.117 225.756 223.683 219.805C214.562 213.37 209.034 206.849 208.979 206.783C208.712 206.466 208.753 205.991 209.07 205.724C209.388 205.457 209.862 205.498 210.129 205.815C210.183 205.879 215.61 212.276 224.583 218.6C232.833 224.415 245.862 231.361 261.074 231.428C261.489 231.43 261.824 231.768 261.822 232.183C261.822 232.598 261.485 232.932 261.072 232.932Z" fill="#006BDE"/>
<path d="M250.731 223.839C237.432 221.225 225.659 211.039 225.125 210.571C224.813 210.297 224.781 209.823 225.054 209.511C225.327 209.198 225.802 209.168 226.115 209.44C226.253 209.561 240.107 221.54 254.224 222.829C254.644 222.863 254.942 223.233 254.904 223.645C254.866 224.058 254.501 224.363 254.087 224.325C252.961 224.222 251.84 224.057 250.731 223.839Z" fill="#006BDE"/>
<path d="M231.041 155.032C230.687 155.032 230.372 154.781 230.303 154.42C230.226 154.012 230.494 153.619 230.901 153.541C249.944 149.927 255.684 137.676 255.74 137.553C255.911 137.175 256.356 137.007 256.735 137.178C257.113 137.349 257.281 137.794 257.11 138.172C256.869 138.705 250.985 151.26 231.182 155.017C231.134 155.027 231.087 155.032 231.041 155.032Z" fill="#006BDE"/>
<path d="M256.658 124.611C252.878 133.233 243.586 142.161 231.502 140.073C219.8 138.05 214.25 131.861 210.245 125.459C216.397 122.174 222.643 119.13 225.771 117.047C228.875 118.398 231.348 119.138 234.01 119.126C234.082 119.126 234.163 119.126 234.239 119.118C234.311 119.126 234.392 119.126 234.464 119.126C237.126 119.138 239.599 118.398 242.708 117.047C245.612 118.977 251.081 121.671 256.658 124.611Z" fill="#FFA681"/>
<path d="M246.556 117.678C246.222 117.674 245.957 117.942 245.954 118.272C245.95 118.757 245.752 130.153 235.522 131.036C226.033 131.861 222.105 122.777 220.892 119.009C220.821 118.788 220.616 118.64 220.384 118.64H220.272C219.907 118.64 219.649 118.996 219.764 119.342C221.059 123.23 225.195 132.619 234.862 132.274C235.113 132.265 235.367 132.249 235.625 132.227C246.947 131.25 247.149 118.409 247.15 118.279C247.152 117.949 246.886 117.68 246.556 117.678Z" fill="white"/>
<path d="M253.788 57.102C253.788 57.102 262.931 71.264 261.929 86.015C260.927 100.766 263.277 117.794 250.077 117.046C236.878 116.298 213.334 122.338 205.851 110.849C198.368 99.361 253.788 57.102 253.788 57.102Z" fill="#18315B"/>
<path d="M257.176 83.142C257.176 83.142 259.549 104.524 249.403 110.411C239.257 116.298 231.914 109.725 231.914 109.725C231.914 109.725 253.301 79.922 257.176 83.142Z" fill="#000B29"/>
<path d="M215.032 83.043C215.032 83.043 211.389 78.186 208.68 82.202C205.971 86.219 209.801 98.082 216.433 95.186L215.032 83.043Z" fill="#F97853"/>
<path d="M214.985 91.52C214.74 91.52 214.515 91.358 214.445 91.111C213.417 87.448 209.623 85.964 209.584 85.949C209.295 85.839 209.15 85.515 209.259 85.226C209.369 84.937 209.692 84.791 209.981 84.9C210.158 84.967 214.34 86.59 215.524 90.808C215.607 91.106 215.434 91.415 215.136 91.499C215.086 91.513 215.035 91.52 214.985 91.52Z" fill="#EA5143"/>
<path d="M211.154 89.675C211.05 89.675 210.945 89.646 210.851 89.586C210.591 89.418 210.516 89.072 210.683 88.811C210.711 88.768 211.382 87.744 212.787 87.115C213.068 86.988 213.401 87.115 213.527 87.398C213.653 87.68 213.527 88.012 213.244 88.138C212.158 88.624 211.63 89.41 211.625 89.418C211.519 89.585 211.339 89.675 211.154 89.675Z" fill="#EA5143"/>
<path d="M252.577 83.043C252.577 83.043 256.22 78.186 258.929 82.202C261.638 86.219 257.808 98.082 251.176 95.186L252.577 83.043Z" fill="#F97853"/>
<path d="M252.623 91.52C252.868 91.52 253.093 91.358 253.163 91.111C254.191 87.448 257.985 85.964 258.024 85.949C258.313 85.839 258.458 85.515 258.349 85.226C258.239 84.937 257.916 84.791 257.627 84.9C257.45 84.967 253.268 86.59 252.084 90.808C252.001 91.106 252.174 91.415 252.472 91.499C252.523 91.513 252.574 91.52 252.623 91.52Z" fill="#EA5143"/>
<path d="M256.454 89.675C256.558 89.675 256.663 89.646 256.757 89.586C257.017 89.418 257.092 89.072 256.925 88.811C256.897 88.768 256.226 87.744 254.821 87.115C254.54 86.988 254.207 87.115 254.081 87.398C253.955 87.68 254.081 88.012 254.364 88.138C255.45 88.624 255.978 89.41 255.983 89.418C256.089 89.585 256.27 89.675 256.454 89.675Z" fill="#EA5143"/>
<path d="M242.772 105.249V117.047C242.772 117.047 239.253 123.055 234.495 123.465C229.742 123.88 225.518 118.292 225.518 118.292V106.079L242.772 105.249Z" fill="#FFA681"/>
<path d="M242.772 105.249V110.484C239.579 114.027 233.911 115.282 225.519 114.044L225.518 106.079L242.772 105.249Z" fill="#F97853"/>
<path d="M255.211 74.949C254.992 79.534 254.555 85.267 253.681 89.852C253.462 90.995 253.216 92.071 252.941 93.036C250.458 101.729 244.248 116.638 226.862 110.428C219.183 107.687 215.624 99.134 214.038 90.436C212.962 84.528 212.799 78.559 212.878 74.294C212.962 69.939 215.338 65.96 219.127 63.813C229.389 57.995 240.218 60.164 247.347 62.905C252.296 64.805 255.463 69.664 255.211 74.949Z" fill="#FFA681"/>
<path d="M226.148 83.735C226.148 84.994 225.499 86.016 224.698 86.016C223.897 86.016 223.248 84.995 223.248 83.735C223.248 82.476 223.897 81.455 224.698 81.455C225.498 81.455 226.148 82.476 226.148 83.735Z" fill="#18315B"/>
<path d="M244.05 83.735C244.05 84.994 243.401 86.016 242.6 86.016C241.799 86.016 241.15 84.995 241.15 83.735C241.15 82.476 241.799 81.455 242.6 81.455C243.401 81.455 244.05 82.476 244.05 83.735Z" fill="#18315B"/>
<path d="M221.826 76.946C223.03 76.606 225.462 76.024 228.028 76.017C228.703 76.015 229.22 76.615 229.101 77.28L229.098 77.297C229.003 77.828 228.528 78.203 227.989 78.178C226.243 78.097 221.661 78.342 219.497 79.219C219.453 78.843 219.675 78.431 219.99 78.066C220.468 77.511 221.122 77.145 221.826 76.946Z" fill="#18315B"/>
<path d="M245.251 76.993C244.046 76.653 241.615 76.071 239.049 76.064C238.374 76.062 237.857 76.662 237.976 77.327L237.979 77.344C238.074 77.875 238.549 78.25 239.087 78.225C240.833 78.144 245.415 78.389 247.579 79.266C247.623 78.89 247.401 78.478 247.086 78.112C246.609 77.557 245.954 77.191 245.251 76.993Z" fill="#18315B"/>
<path d="M233.999 94.139C233.57 94.139 233.139 94.063 232.78 93.848C232.453 93.652 232.045 93.255 231.965 92.48C231.752 90.42 232.279 83.963 232.302 83.689C232.327 83.38 232.598 83.151 232.907 83.176C233.216 83.201 233.445 83.472 233.42 83.781C233.414 83.847 232.879 90.408 233.081 92.365C233.116 92.705 233.255 92.826 233.357 92.887C233.883 93.202 235.099 92.88 235.605 92.675C235.891 92.557 236.219 92.696 236.335 92.982C236.452 93.268 236.315 93.595 236.028 93.712C235.882 93.771 234.945 94.139 233.999 94.139Z" fill="#F97853"/>
<path d="M226.881 97.678C227.305 99.81 228.713 103.732 233.457 103.732C238.213 103.732 239.547 100.148 240.005 97.678H226.881Z" fill="white"/>
<path d="M233.39 107.003C232.021 107.003 230.812 106.266 230.761 106.234C230.498 106.071 230.416 105.726 230.579 105.463C230.741 105.2 231.086 105.119 231.349 105.28C231.359 105.286 232.345 105.882 233.39 105.882C234.52 105.882 235.533 105.283 235.543 105.277C235.809 105.118 236.152 105.203 236.312 105.468C236.472 105.732 236.387 106.076 236.123 106.236C236.07 106.268 234.84 107.003 233.39 107.003Z" fill="#F97853"/>
<path d="M257.468 74.036C257.288 74.547 256.788 74.874 256.119 75.069C256.168 76.305 256.038 77.792 255.916 79.217C255.224 87.318 253.181 88.74 252.719 86.737C252.415 85.407 252.433 77.778 252.58 75.29C250.979 75.185 249.611 74.918 249.611 74.918L247.732 67.053L247.074 74.82C244.256 75.801 237.68 74.23 237.68 74.23L235.474 66.478L234.11 73.937C229.883 75.996 224.599 74.625 224.599 74.625L223.385 66.58L220.582 74.625C220.582 74.625 211.564 77.86 211.466 74.625C211.406 72.742 212.785 67.44 213.95 63.333C215.22 58.854 218.162 55.07 222.142 52.936C233.328 46.931 245.158 50.125 249.216 52.549C257.821 57.686 257.468 74.036 257.468 74.036Z" fill="#18315B"/>
<path d="M216.433 57.701C216.433 57.701 209.009 66.531 206.566 82.302C204.123 98.073 200.741 109.725 210.245 114.933C220.531 120.569 219.64 109.01 219.492 105.868C219.344 102.726 210.595 94.139 216.433 69.953C218.318 62.145 216.433 57.701 216.433 57.701Z" fill="#18315B"/>
<path d="M214.698 90.291C214.698 90.291 214.698 90.299 214.698 90.31C214.702 90.427 214.709 91.054 214.754 92.035C214.777 92.644 214.814 93.384 214.87 94.226C215.22 99.539 216.253 108.716 219.289 111.898C220.488 113.157 222.799 113.788 225.519 114.044V109.869C222.652 108.509 220.416 106.273 218.684 103.522C217.613 101.203 215.768 97.574 214.904 91.866L214.698 90.291Z" fill="#000B29"/>
<path d="M255.345 95.453C255.345 96.178 254.757 96.766 254.032 96.766C253.307 96.766 252.719 96.178 252.719 95.453C252.719 94.728 253.307 94.14 254.032 94.14C254.757 94.14 255.345 94.727 255.345 95.453Z" fill="white"/>
<path d="M282.105 194.374C278.386 205.022 261.728 204.247 242.756 198.426C242.729 198.418 242.701 198.408 242.674 198.401C242.614 198.384 242.557 198.364 242.497 198.346L239.887 197.514C239.527 197.397 239.165 197.277 238.805 197.154C236.76 196.469 234.701 195.729 232.633 194.944C225.854 192.369 219.023 189.317 212.581 186.063L212.626 185.951L214.566 180.912L215.228 179.197C215.228 179.197 250.4 183.029 268.084 179.332C268.384 179.269 268.676 179.207 268.964 179.14C268.894 178.748 268.872 178.347 268.762 177.973C259.392 146.073 269.639 139.957 273.069 135.508C273.069 135.506 289.127 174.272 282.105 194.374Z" fill="#009CF8"/>
<path d="M276.374 184.501C276.269 184.551 276.157 184.576 276.046 184.576C275.769 184.576 275.501 184.421 275.371 184.156C274.031 181.411 269.482 179.779 268.085 179.332C268.385 179.269 268.677 179.207 268.965 179.14C268.895 178.748 268.828 178.358 268.763 177.973C270.54 178.56 275.182 180.35 276.719 183.5C276.901 183.868 276.746 184.318 276.374 184.501Z" fill="#006BDE"/>
<path d="M227.112 183.164C219.934 183.164 214.105 182.751 213.597 182.714C213.184 182.684 212.874 182.325 212.904 181.912C212.934 181.499 213.293 181.192 213.707 181.219C213.972 181.238 240.355 183.104 250.757 178.885C251.14 178.73 251.578 178.914 251.734 179.298C251.889 179.682 251.705 180.119 251.321 180.275C245.562 182.61 235.431 183.164 227.112 183.164Z" fill="#006BDE"/>
<path d="M239.887 197.513C239.89 197.513 239.89 197.513 239.89 197.513C245.909 195.853 251.381 194.236 254.54 193.224C258.927 191.817 262.556 187.383 264.206 183.613C264.371 183.233 264.813 183.061 265.193 183.228C265.573 183.393 265.745 183.835 265.58 184.215C263.795 188.292 259.831 193.101 254.997 194.653C252.704 195.388 249.202 196.438 245.155 197.593C243.43 198.087 241.596 198.059 239.887 197.513Z" fill="#006BDE"/>
<path d="M256.112 192.357C201.756 210.664 185.034 198.683 185.034 198.683C181.375 165.591 194.86 135.833 194.86 135.833C198.844 142.402 203.349 153.868 203.349 153.868L204.539 179.234L204.449 179.939L204.406 180.271L204.181 182.006L204.176 182.041C204.291 182.066 204.408 182.091 204.526 182.116C220.968 185.585 251.038 181.709 251.038 181.709L256.112 192.357Z" fill="#009CF8"/>
<path d="M204.526 182.116C201.591 184.576 198.804 187.41 196.32 190.667C196.07 190.997 195.598 191.062 195.268 190.81C194.938 190.56 194.876 190.09 195.123 189.76C195.126 189.76 195.126 189.757 195.126 189.757C197.918 186.09 201.082 182.951 204.407 180.271L204.182 182.006L204.177 182.041C204.291 182.066 204.408 182.091 204.526 182.116Z" fill="#006BDE"/>
<path d="M251.038 181.709C251.038 181.709 257.056 168.039 266.205 169.256L268.964 179.14C263.956 181.267 263.223 189.854 256.113 192.357L251.038 181.709Z" fill="#FFA681"/>
<path d="M215.23 179.197C215.23 179.197 211.43 170.277 201.428 167.688C191.426 165.098 185.054 169.812 184.383 171.59C183.712 173.369 188.155 171.669 188.155 171.669C188.155 171.669 185.261 172.488 183.601 175.208C181.941 177.928 187.642 174.993 187.642 174.993C187.642 174.993 183.554 176.785 183.034 178.446C182.514 180.107 187.906 177.301 188.919 177.354C188.919 177.354 184.104 179.268 184.137 180.982C184.17 182.696 189.668 179.901 193.773 180.122C197.879 180.343 204.174 182.044 204.174 182.044C207.534 182.683 210.745 183.157 213.65 183.291L215.23 179.197Z" fill="#FFA681"/>
<path d="M311.81 40.503C308.108 40.503 305.096 37.491 305.096 33.789C305.096 30.087 308.108 27.075 311.81 27.075C315.512 27.075 318.524 30.087 318.524 33.789C318.524 37.491 315.512 40.503 311.81 40.503ZM311.81 29.182C309.269 29.182 307.202 31.249 307.202 33.79C307.202 36.331 309.269 38.397 311.81 38.397C314.351 38.397 316.417 36.33 316.417 33.79C316.418 31.249 314.351 29.182 311.81 29.182Z" fill="#006BDE"/>
<path d="M370.385 29.097C366.683 29.097 363.671 26.085 363.671 22.383C363.671 18.681 366.683 15.669 370.385 15.669C374.087 15.669 377.099 18.681 377.099 22.383C377.099 26.085 374.087 29.097 370.385 29.097ZM370.385 17.776C367.844 17.776 365.777 19.843 365.777 22.384C365.777 24.925 367.844 26.992 370.385 26.992C372.925 26.992 374.992 24.925 374.992 22.384C374.993 19.842 372.926 17.776 370.385 17.776Z" fill="#009CF8"/>
<path d="M378.68 50.914C378.099 50.914 377.627 50.443 377.627 49.861V45.217C377.627 44.635 378.099 44.164 378.68 44.164C379.262 44.164 379.733 44.635 379.733 45.217V49.861C379.733 50.442 379.262 50.914 378.68 50.914Z" fill="#006BDE"/>
<path d="M378.68 59.041C378.099 59.041 377.627 58.57 377.627 57.988V53.344C377.627 52.762 378.099 52.291 378.68 52.291C379.262 52.291 379.733 52.762 379.733 53.344V57.988C379.733 58.57 379.262 59.041 378.68 59.041Z" fill="#006BDE"/>
<path d="M385.199 52.655H381.027C380.445 52.655 379.974 52.184 379.974 51.602C379.974 51.02 380.446 50.549 381.027 50.549H385.199C385.78 50.549 386.252 51.02 386.252 51.602C386.252 52.184 385.781 52.655 385.199 52.655Z" fill="#006BDE"/>
<path d="M376.333 52.655H372.161C371.58 52.655 371.108 52.184 371.108 51.602C371.108 51.02 371.58 50.549 372.161 50.549H376.333C376.915 50.549 377.386 51.02 377.386 51.602C377.386 52.184 376.915 52.655 376.333 52.655Z" fill="#006BDE"/>
<path d="M343.218 22.779C342.636 22.779 342.165 22.307 342.165 21.726V17.082C342.165 16.5 342.637 16.029 343.218 16.029C343.799 16.029 344.271 16.5 344.271 17.082V21.726C344.271 22.307 343.8 22.779 343.218 22.779Z" fill="#1C31B5"/>
<path d="M343.218 30.906C342.636 30.906 342.165 30.435 342.165 29.853V25.209C342.165 24.627 342.637 24.156 343.218 24.156C343.799 24.156 344.271 24.627 344.271 25.209V29.853C344.271 30.435 343.8 30.906 343.218 30.906Z" fill="#1C31B5"/>
<path d="M349.737 24.521H345.565C344.984 24.521 344.512 24.049 344.512 23.468C344.512 22.886 344.984 22.415 345.565 22.415H349.737C350.319 22.415 350.79 22.886 350.79 23.468C350.79 24.049 350.319 24.521 349.737 24.521Z" fill="#1C31B5"/>
<path d="M340.871 24.521H336.699C336.117 24.521 335.646 24.049 335.646 23.468C335.646 22.886 336.118 22.415 336.699 22.415H340.871C341.453 22.415 341.924 22.886 341.924 23.468C341.925 24.049 341.453 24.521 340.871 24.521Z" fill="#1C31B5"/>
<path d="M71.843 16.754C71.843 13.052 74.855 10.04 78.557 10.04C82.259 10.04 85.271 13.052 85.271 16.754C85.271 20.456 82.259 23.468 78.557 23.468C74.855 23.467 71.843 20.456 71.843 16.754ZM73.95 16.754C73.95 19.295 76.017 21.361 78.557 21.361C81.098 21.361 83.164 19.294 83.164 16.754C83.164 14.213 81.097 12.146 78.557 12.146C76.017 12.146 73.95 14.213 73.95 16.754Z" fill="#006BDE"/>
<path d="M44.882 42.344C44.882 38.642 47.894 35.63 51.596 35.63C55.298 35.63 58.31 38.642 58.31 42.344C58.31 46.046 55.298 49.058 51.596 49.058C47.893 49.058 44.882 46.046 44.882 42.344ZM46.988 42.344C46.988 44.885 49.055 46.951 51.596 46.951C54.137 46.951 56.203 44.884 56.203 42.344C56.203 39.803 54.136 37.736 51.596 37.736C49.055 37.736 46.988 39.803 46.988 42.344Z" fill="#009CF8"/>
<path d="M30.923 51.765C31.505 51.765 31.976 51.294 31.976 50.712V46.068C31.976 45.486 31.504 45.015 30.923 45.015C30.342 45.015 29.87 45.486 29.87 46.068V50.712C29.87 51.294 30.342 51.765 30.923 51.765Z" fill="#006BDE"/>
<path d="M30.923 59.893C31.505 59.893 31.976 59.422 31.976 58.84V54.196C31.976 53.614 31.504 53.143 30.923 53.143C30.342 53.143 29.87 53.614 29.87 54.196V58.84C29.87 59.421 30.342 59.893 30.923 59.893Z" fill="#006BDE"/>
<path d="M24.404 53.507H28.576C29.158 53.507 29.629 53.035 29.629 52.454C29.629 51.872 29.157 51.401 28.576 51.401H24.404C23.823 51.401 23.351 51.872 23.351 52.454C23.351 53.035 23.823 53.507 24.404 53.507Z" fill="#006BDE"/>
<path d="M33.27 53.507H37.442C38.024 53.507 38.495 53.035 38.495 52.454C38.495 51.872 38.023 51.401 37.442 51.401H33.27C32.688 51.401 32.217 51.872 32.217 52.454C32.217 53.035 32.689 53.507 33.27 53.507Z" fill="#006BDE"/>
<path d="M55.19 16.065C55.771 16.065 56.243 15.594 56.243 15.012V10.368C56.243 9.786 55.771 9.315 55.19 9.315C54.609 9.315 54.137 9.786 54.137 10.368V15.012C54.137 15.594 54.608 16.065 55.19 16.065Z" fill="#1C31B5"/>
<path d="M55.19 24.193C55.771 24.193 56.243 23.722 56.243 23.14V18.496C56.243 17.914 55.771 17.443 55.19 17.443C54.609 17.443 54.137 17.915 54.137 18.496V23.14C54.137 23.721 54.608 24.193 55.19 24.193Z" fill="#1C31B5"/>
<path d="M48.671 17.807H52.843C53.424 17.807 53.896 17.336 53.896 16.754C53.896 16.172 53.424 15.701 52.843 15.701H48.671C48.089 15.701 47.618 16.173 47.618 16.754C47.618 17.335 48.089 17.807 48.671 17.807Z" fill="#1C31B5"/>
<path d="M57.537 17.807H61.709C62.291 17.807 62.762 17.336 62.762 16.754C62.762 16.172 62.29 15.701 61.709 15.701H57.537C56.955 15.701 56.484 16.173 56.484 16.754C56.484 17.335 56.955 17.807 57.537 17.807Z" fill="#1C31B5"/>
<path d="M255.965 17.236C255.843 17.249 255.717 17.232 255.596 17.181C254.318 16.642 253.569 16.39 253.561 16.387C253.169 16.256 252.958 15.833 253.088 15.441C253.219 15.049 253.642 14.838 254.034 14.968C254.066 14.979 254.839 15.238 256.177 15.802C256.557 15.963 256.736 16.401 256.575 16.782C256.466 17.043 256.227 17.208 255.965 17.236Z" fill="#BBE2F2"/>
<path d="M294.074 57.345C294.583 58.702 295.059 60.101 295.49 61.504C295.597 61.851 295.934 62.065 296.283 62.028C296.33 62.023 296.378 62.013 296.425 61.999C296.82 61.878 297.041 61.459 296.92 61.065C296.48 59.633 295.994 58.205 295.475 56.821C295.33 56.435 294.901 56.239 294.513 56.383C294.125 56.527 293.929 56.958 294.074 57.345Z" fill="#BBE2F2"/>
<path d="M296.655 65.74C296.998 67.145 297.307 68.591 297.576 70.039C297.648 70.425 298.005 70.687 298.389 70.646C298.408 70.644 298.428 70.641 298.447 70.638C298.853 70.562 299.121 70.172 299.046 69.766C298.773 68.291 298.457 66.817 298.108 65.385C298.01 64.984 297.605 64.738 297.204 64.836C296.803 64.934 296.558 65.339 296.655 65.74Z" fill="#BBE2F2"/>
<path d="M299.809 88.322C300.18 88.283 300.471 87.972 300.477 87.59C300.5 86.09 300.489 84.584 300.445 83.115C300.433 82.702 300.088 82.378 299.675 82.39C299.257 82.405 298.938 82.747 298.95 83.16C298.994 84.606 299.004 86.089 298.982 87.567C298.976 87.98 299.305 88.32 299.718 88.326C299.749 88.327 299.779 88.325 299.809 88.322Z" fill="#BBE2F2"/>
<path d="M298.903 73.545C298.493 73.598 298.204 73.973 298.258 74.383C298.346 75.059 298.426 75.742 298.497 76.413C298.579 77.187 298.652 77.978 298.713 78.762C298.745 79.174 299.105 79.481 299.517 79.449C299.524 79.448 299.53 79.448 299.537 79.447C299.938 79.405 300.235 79.05 300.204 78.645C300.141 77.848 300.068 77.044 299.985 76.256C299.913 75.573 299.831 74.878 299.742 74.19C299.69 73.787 299.325 73.5 298.923 73.543C298.916 73.544 298.909 73.544 298.903 73.545Z" fill="#BBE2F2"/>
<path d="M292.406 53.282C292.541 53.585 292.854 53.753 293.167 53.72C293.243 53.712 293.32 53.692 293.394 53.659C293.771 53.49 293.94 53.048 293.771 52.671C293.162 51.309 292.502 49.951 291.81 48.636C291.618 48.27 291.166 48.13 290.8 48.322C290.435 48.514 290.294 48.966 290.486 49.332C291.164 50.62 291.809 51.948 292.406 53.282Z" fill="#BBE2F2"/>
<path d="M259.568 19.04C260.852 19.696 262.148 20.41 263.42 21.163C263.564 21.248 263.725 21.28 263.879 21.263C264.106 21.239 264.319 21.112 264.445 20.9C264.655 20.545 264.538 20.086 264.183 19.876C262.885 19.107 261.561 18.378 260.25 17.708C259.883 17.521 259.432 17.666 259.244 18.034C259.055 18.401 259.2 18.851 259.568 19.04Z" fill="#BBE2F2"/>
<path d="M270.712 26.081C270.87 26.202 271.061 26.25 271.244 26.23C271.441 26.209 271.63 26.11 271.76 25.94C272.011 25.612 271.948 25.142 271.619 24.892C270.435 23.988 269.209 23.108 267.975 22.275C267.632 22.044 267.168 22.134 266.937 22.477C266.706 22.819 266.796 23.284 267.139 23.515C268.349 24.331 269.551 25.195 270.712 26.081Z" fill="#BBE2F2"/>
<path d="M283.277 38.324C283.442 38.531 283.695 38.626 283.94 38.6C284.077 38.585 284.212 38.533 284.328 38.44C284.65 38.182 284.703 37.711 284.444 37.389C283.515 36.229 282.535 35.08 281.531 33.976C281.254 33.67 280.781 33.647 280.475 33.925C280.169 34.203 280.147 34.676 280.425 34.981C281.407 36.063 282.367 37.188 283.277 38.324Z" fill="#BBE2F2"/>
<path d="M277.37 31.822C277.536 31.983 277.757 32.052 277.971 32.03C278.139 32.012 278.301 31.938 278.428 31.808C278.716 31.512 278.709 31.039 278.414 30.751C277.351 29.716 276.237 28.697 275.104 27.72C274.791 27.45 274.319 27.486 274.05 27.798C273.78 28.111 273.815 28.583 274.128 28.852C275.237 29.809 276.328 30.808 277.37 31.822Z" fill="#BBE2F2"/>
<path d="M288.32 45.512C288.476 45.767 288.759 45.896 289.037 45.866C289.144 45.855 289.25 45.82 289.348 45.761C289.7 45.546 289.812 45.085 289.596 44.733C288.82 43.462 287.993 42.199 287.138 40.979C286.901 40.641 286.435 40.559 286.096 40.796C285.758 41.033 285.676 41.5 285.913 41.838C286.75 43.032 287.56 44.268 288.32 45.512Z" fill="#BBE2F2"/>
<path d="M255.95 12.12L259.223 0L219.125 0.343994L255.95 12.12Z" fill="#009CF8"/>
<path d="M219.125 0.342987L254.004 15.046L254.096 15.086L255.597 17.571L255.95 12.12L219.125 0.342987Z" fill="#006BDE"/>
<path d="M255.597 17.571L252.346 17.059L254.096 15.086L255.597 17.571Z" fill="#006BDE"/>
<path d="M249.708 13.235L254.097 15.085L245.058 25.27L219.125 0.343994L249.708 13.235Z" fill="#009CF8"/>
<path d="M440.33 330.984V331.715C440.33 335.929 436.912 339.347 432.696 339.347H36.748C32.531 339.347 29.116 335.929 29.116 331.715V330.984C29.116 326.77 32.531 323.352 36.748 323.352H432.696C436.913 323.353 440.33 326.77 440.33 330.984Z" fill="#1C31B5"/>
<path d="M440.33 330.984V331.349H29.116V330.984C29.116 326.77 32.531 323.352 36.748 323.352H432.696C436.913 323.353 440.33 326.77 440.33 330.984Z" fill="#006BDE"/>
<path d="M295.319 299.343H170.933C167.961 299.343 165.552 296.934 165.552 293.962V228.885C165.552 225.913 167.961 223.504 170.933 223.504H295.318C298.29 223.504 300.699 225.913 300.699 228.885V293.962C300.7 296.934 298.29 299.343 295.319 299.343Z" fill="#18315B"/>
<path d="M243.592 299.257H222.661V323.118H243.592V299.257Z" fill="#000B29"/>
<path d="M232.892 272.741C238.629 272.741 243.28 268.09 243.28 262.353C243.28 256.616 238.629 251.965 232.892 251.965C227.155 251.965 222.504 256.616 222.504 262.353C222.504 268.09 227.155 272.741 232.892 272.741Z" fill="#1D567E"/>
<path d="M259.785 323.117H205.797V321.298C205.797 317.628 208.772 314.652 212.442 314.652H253.139C256.809 314.652 259.784 317.627 259.784 321.298V323.117H259.785Z" fill="#18315B"/>
</svg>
