<svg width="64" height="64" viewBox="0 0 64 64" fill="none" xmlns="http://www.w3.org/2000/svg">
<path opacity="0.5" fill-rule="evenodd" clip-rule="evenodd" d="M17.1738 27.423L18.5505 22.1548L28.2465 16.5417V23.5744L17.1738 30.5541V27.423Z" fill="#1C60DD"/>
<path opacity="0.7" fill-rule="evenodd" clip-rule="evenodd" d="M21.7627 27.6085L32.6811 20.8195V26.3948C32.6811 26.3948 32.5152 28.235 31.717 28.5778C31.1268 28.8186 21.7656 34.3575 21.7656 34.3575L21.7627 27.6085Z" fill="#1C60DD"/>
<path opacity="0.9" fill-rule="evenodd" clip-rule="evenodd" d="M27.709 30.9019L37.4151 25.1818V30.7564C37.4151 30.7564 37.4151 32.2975 36.451 32.8396C35.8288 33.1722 27.7112 37.8968 27.7112 37.8968L27.709 30.9019Z" fill="#1C60DD"/>
<path opacity="0.5" fill-rule="evenodd" clip-rule="evenodd" d="M31.7314 14.5501L37.068 11.1098V18.1389L31.7365 21.4017L31.7314 14.5501Z" fill="#1C60DD"/>
<path opacity="0.7" fill-rule="evenodd" clip-rule="evenodd" d="M36.0769 18.7384L41.4397 15.571V22.8475L36.0747 25.9633L36.0769 18.7384Z" fill="#1C60DD"/>
<path opacity="0.5" fill-rule="evenodd" clip-rule="evenodd" d="M40.189 9.23462L43.841 7V11.8476C43.841 11.8476 43.841 14.2729 42.8769 14.7582C42.6914 14.8565 40.2086 16.3016 40.2086 16.3016L40.189 9.23462Z" fill="#1C60DD"/>
<path opacity="0.9" fill-rule="evenodd" clip-rule="evenodd" d="M40.2854 23.4297L43.9237 21.2467L43.84 26.8169C43.84 26.8169 43.9237 28.286 42.8758 28.9998C42.6343 29.2145 40.1566 30.4209 40.2003 30.4449C40.2439 30.4689 40.2709 23.2325 40.2854 23.4297Z" fill="#1C60DD"/>
<path opacity="0.7" fill-rule="evenodd" clip-rule="evenodd" d="M44.5684 13.7868L47.479 11.86C47.479 11.86 47.5081 14.7502 47.479 16.7083C47.4576 17.3031 47.3188 17.8878 47.0707 18.4287C46.8226 18.9696 46.4699 19.4563 46.0331 19.8605C46.0331 19.8605 44.5276 20.7977 44.5735 20.8239C44.6193 20.8501 44.5684 13.7868 44.5684 13.7868Z" fill="#1C60DD"/>
<path fill-rule="evenodd" clip-rule="evenodd" d="M28.2464 16.5366C28.2013 16.6312 19.3451 21.0262 18.0026 22.5339C18.6873 21.9561 17.4204 23.1044 17.2749 24.834L17.6962 41.089C17.6962 41.089 17.0195 43.9021 20.3463 45.8143C22.7185 47.178 36.4391 54.9675 38.1236 55.7599C39.8081 56.5523 40.2425 55.3 40.2425 55.3V39.5223C40.2061 39.4794 40.7453 37.0294 37.858 35.1819C37.3035 34.7002 19.5248 26.6022 18.7695 24.0525C17.9582 21.3143 28.2464 17.2446 28.2464 16.5366Z" fill="white"/>
<path fill-rule="evenodd" clip-rule="evenodd" d="M39.4152 39.3804L40.2811 38.7539V55.5627C40.2811 55.5627 39.8634 56.4031 39.4152 56.4831C39.3621 56.4555 39.4152 39.3804 39.4152 39.3804Z" fill="#C0C9D7"/>
<path d="M18.1599 24.6055C18.2829 24.8009 18.424 24.9843 18.5812 25.1534C18.4033 24.957 18.2539 24.7366 18.1373 24.4985C17.0895 21.796 24.6862 18.7574 27.8515 16.7272C27.8515 16.7272 20.1682 20.5423 18.6452 21.8732C17.2991 23.0491 17.2023 23.76 17.2023 23.76L17.04 24.7532C17.0735 24.2715 17.0844 23.8415 17.2023 23.76C17.1878 23.8437 18.1475 24.4796 18.1599 24.6055Z" fill="#1C60DD"/>
<path d="M37.0482 35.8499C36.4238 35.3223 28.4561 31.679 22.9463 28.3842C23.2737 28.5908 23.5655 28.772 23.7947 28.9234L36.8459 55.1683C37.1209 55.3138 37.3283 55.431 37.4869 55.5052L39.4152 56.4686V39.6097C39.3912 39.5907 39.6073 37.263 37.0482 35.8499Z" fill="#1C60DD"/>
<path opacity="0.3" d="M17.5952 43.2756C17.2969 42.6609 17.096 42.0034 17 41.3269C17.0293 42.0165 17.2342 42.6873 17.5952 43.2756Z" fill="url(#paint0_linear_1_304)"/>
<path d="M22.9462 28.3842C20.9961 27.2302 19.3807 26.0936 18.5803 25.1542C18.4233 24.9848 18.2825 24.8012 18.1597 24.6055C18.1452 24.4796 17.2138 23.7549 17.2385 23.6683C17.1206 23.7505 17.0457 24.2606 17.0122 24.7452L17.0377 41.3233C17.1323 42.5508 17.2269 42.5981 17.5529 43.2756C18.0295 44.0141 18.2652 44.2943 19.1151 45.0525C21.1103 46.2713 33.4644 53.3375 36.8633 55.1669L23.7946 28.9161L22.9462 28.3842Z" fill="#1C60DD"/>
<path opacity="0.2" d="M22.9244 28.3726C20.9743 27.2185 19.3589 26.0819 18.5585 25.1425C18.4084 24.9725 18.2749 24.7885 18.1597 24.5931C18.1452 24.468 17.2101 23.7432 17.2385 23.6566C17.1803 23.7127 17.0719 24.3617 17.0384 24.8456L17.0122 41.372C17.0595 42.4046 17.2611 42.6905 17.5579 43.3061C17.9829 44.0141 18.5294 44.5431 19.1457 45.0409C21.1416 46.2597 33.4433 53.3259 36.8421 55.1552L23.7728 28.9045L22.9244 28.3726Z" fill="url(#paint1_linear_1_304)"/>
<path fill-rule="evenodd" clip-rule="evenodd" d="M36.6048 42.6803L33.8929 41.0067C33.4112 40.7273 32.947 40.9078 33.1849 41.4018V45.9053C33.3006 46.0719 33.5342 46.6111 33.4258 46.8832C33.0372 46.8643 34.9684 48.4841 36.0598 49.0946C36.3778 49.2728 36.9709 49.3471 36.925 48.6129V43.2632C36.9264 43.1466 36.8973 43.0317 36.8406 42.9299C36.7847 42.8279 36.7035 42.742 36.6048 42.6803Z" fill="#B0B5BE"/>
<path fill-rule="evenodd" clip-rule="evenodd" d="M36.4894 42.9503C36.0674 42.4249 34.6572 41.618 33.7003 40.9274C33.4595 40.7513 33.0404 40.8765 33.0455 41.1683C33.1059 44.5759 33.1182 46.144 33.3154 46.8112C33.4609 47.3206 35.0582 48.3909 35.9663 48.9942C36.2362 49.1768 36.6008 49.2205 36.6124 48.8901C36.6634 47.4574 36.6124 44.1335 36.6124 43.2836C36.6083 43.1613 36.5643 43.0438 36.4873 42.9489L36.4894 42.9503Z" fill="white"/>
<defs>
<linearGradient id="paint0_linear_1_304" x1="25.9661" y1="32.3221" x2="17.395" y2="42.1891" gradientUnits="userSpaceOnUse">
<stop/>
<stop offset="1" stop-color="#1C60DD" stop-opacity="0"/>
</linearGradient>
<linearGradient id="paint1_linear_1_304" x1="30.0859" y1="35.9023" x2="21.5149" y2="45.7692" gradientUnits="userSpaceOnUse">
<stop offset="0.19"/>
<stop offset="1" stop-color="#1C60DD" stop-opacity="0"/>
</linearGradient>
</defs>
</svg>
