<svg xmlns="http://www.w3.org/2000/svg" xmlns:xlink="http://www.w3.org/1999/xlink" width="256" height="240" preserveAspectRatio="xMidYMid" version="1.1" viewBox="0 0 256 240"><title>MetaMask</title><g><polygon fill="#E17726" points="250.066 0 140.219 81.279 160.646 33.379"/><polygon fill="#E27625" points="6.191 .096 95.372 33.385 114.768 81.913"/><polygon fill="#E27625" points="205.86 172.858 254.411 173.782 237.443 231.424 178.2 215.113"/><polygon fill="#E27625" points="50.139 172.858 77.696 215.113 18.553 231.425 1.688 173.782"/><polygon fill="#E27625" points="112.131 69.552 114.115 133.635 54.744 130.934 71.632 105.456 71.846 105.211"/><polygon fill="#E27625" points="143.254 68.837 184.154 105.213 184.366 105.457 201.254 130.935 141.896 133.635"/><polygon fill="#E27625" points="79.435 173.044 111.853 198.303 74.195 216.484"/><polygon fill="#E27625" points="176.571 173.04 181.702 216.485 144.149 198.301"/><polygon fill="#D5BFB2" points="144.978 195.922 183.085 214.374 147.638 231.22 148.006 220.086"/><polygon fill="#D5BFB2" points="111.011 195.93 108.102 219.904 108.341 231.207 72.811 214.374"/><polygon fill="#233447" points="100.007 141.999 109.965 162.927 76.062 152.995"/><polygon fill="#233447" points="155.992 142.001 180.05 152.995 146.036 162.924"/><polygon fill="#CC6228" points="82.026 172.83 76.546 217.87 47.173 173.815"/><polygon fill="#CC6228" points="173.976 172.831 208.83 173.815 179.347 217.872"/><polygon fill="#CC6228" points="202.112 128.387 176.747 154.238 157.19 145.301 147.827 164.985 141.689 131.136"/><polygon fill="#CC6228" points="53.875 128.387 114.31 131.136 108.171 164.985 98.806 145.304 79.353 154.239"/><polygon fill="#E27525" points="52.166 123.082 80.864 152.203 81.858 180.952"/><polygon fill="#E27525" points="203.863 123.03 174.117 181.003 175.237 152.203"/><polygon fill="#E27525" points="112.907 124.856 114.062 132.126 116.916 150.237 115.081 205.862 106.406 161.177 106.403 160.715"/><polygon fill="#E27525" points="143.078 124.755 149.599 160.715 149.596 161.177 140.899 205.974 140.555 194.769 139.198 149.907"/><polygon fill="#F5841F" points="177.788 151.046 176.817 176.024 146.543 199.611 140.423 195.287 147.283 159.952"/><polygon fill="#F5841F" points="78.317 151.046 108.716 159.952 115.576 195.287 109.456 199.611 79.181 176.022"/><polygon fill="#C0AC9D" points="67.018 208.858 105.75 227.21 105.586 219.373 108.827 216.528 147.161 216.528 150.519 219.363 150.271 227.194 188.758 208.904 170.03 224.38 147.385 239.933 108.516 239.933 85.886 224.316"/><polygon fill="#161616" points="142.204 193.479 147.68 197.348 150.889 222.952 146.245 219.031 109.769 219.031 105.213 223.031 108.317 197.35 113.795 193.479"/><polygon fill="#763E1A" points="242.814 2.25 256 41.807 247.765 81.804 253.629 86.327 245.694 92.381 251.658 96.987 243.761 104.178 248.609 107.689 235.743 122.715 182.973 107.35 182.516 107.105 144.489 75.027"/><polygon fill="#763E1A" points="13.186 2.25 111.512 75.027 73.484 107.105 73.027 107.35 20.257 122.715 7.391 107.689 12.235 104.181 4.343 96.987 10.295 92.386 2.241 86.315 8.326 81.789 0 41.809"/><polygon fill="#F5841F" points="180.392 103.99 236.305 120.269 254.47 176.255 206.546 176.255 173.526 176.671 197.54 129.863"/><polygon fill="#F5841F" points="75.608 103.99 58.457 129.863 82.474 176.671 49.469 176.255 1.631 176.255 19.694 120.27"/><polygon fill="#F5841F" points="163.384 33.112 147.745 75.351 144.426 132.411 143.156 150.296 143.055 195.984 112.944 195.984 112.846 150.382 111.572 132.396 108.252 75.351 92.615 33.112"/></g></svg>